<?xml version="1.0" standalone="no"?>
<!DOCTYPE svg PUBLIC "-//W3C//DTD SVG 1.1//EN" "http://www.w3.org/Graphics/SVG/1.1/DTD/svg11.dtd" >
<svg>
<metadata>
Created by FontForge 20110222 at Wed Dec 17 10:36:42 2014
 By deploy user
Creative Commons CC BY-SA 2012
</metadata>
<defs>
<font id="Entypo" horiz-adv-x="600" >
  <font-face 
    font-family="Entypo"
    font-weight="400"
    font-stretch="normal"
    units-per-em="1000"
    panose-1="0 0 0 0 0 0 0 0 0 0"
    ascent="750"
    descent="-250"
    bbox="49.5532 -0.142857 551.222 500.8"
    underline-thickness="0"
    underline-position="-100"
    unicode-range="U+2016-1F6C8"
  />
<missing-glyph horiz-adv-x="500" 
 />
    <glyph glyph-name=".notdef" horiz-adv-x="500" 
 />
    <glyph glyph-name="mouse" unicode="&#xe789;" horiz-adv-x="381" 
d="M325 140q7 -20 4.5 -40.5t-13 -38.5t-28.5 -32.5t-41 -22.5q-23 -7 -45.5 -5.5t-41.5 10t-32.5 23.5t-19.5 35l-53 192q-10 35 3 67.5t42 52.5l-48 93q-3 7 -1 14t8 10q7 4 13.5 2t10.5 -9l49 -96q20 5 39.5 3t37 -11t31 -24t20.5 -34zM163 277q14 5 20.5 18t1.5 27
t-17.5 21t-26.5 2t-20.5 -18t-1.5 -27t17.5 -21t26.5 -2z" />
    <glyph glyph-name="address" unicode="&#xe723;" 
d="M263 475q10 0 10 -10v-430q0 -10 -10 -10h-23q-10 0 -10 10v220h-88q-8 0 -14 3q-4 1 -7.5 2.5t-5.5 3.5l-60 41q-5 3 -5 8t5 8l60 41q2 2 5.5 3.5t7.5 2.5q3 2 7 2h7h88v95q0 10 10 10h23zM545 371q5 -3 5 -8t-5 -8l-59 -41q-3 -2 -6 -3.5t-7 -2.5q-8 -3 -14 -3h-151
l-20 115h171h6.5t7.5 -2q5 -2 13 -6z" />
    <glyph glyph-name="mail" unicode="&#x2709;" horiz-adv-x="550" 
d="M65 368q-5 3 -8.5 7.5t-5 9t1 7.5t11.5 3h423q8 0 10.5 -3t1.5 -7.5t-5 -9t-9 -7.5q-3 -2 -17.5 -9.5t-35 -18.5t-43.5 -23t-42.5 -23t-33.5 -18t-15 -8q-5 -3 -11 -4t-12 -1q-14 0 -23 5q-2 1 -15.5 8t-33 18t-42.5 23t-43.5 23t-35 18.5t-17.5 9.5zM490 318q8 4 9 1
t1 -6v-184q0 -8 -8.5 -16t-16.5 -8h-400q-8 0 -16.5 8t-8.5 16v184q0 3 1 6t9 -1q3 -2 18.5 -9.5t36 -18.5t44 -23t43.5 -22.5t34 -18t16 -8.5q7 -4 12 -4.5t11 -0.5t11 0.5t12 4.5q2 1 16 8.5t34.5 18t44 22.5t44 23t35.5 18.5t18 9.5z" />
    <glyph glyph-name="pencil" unicode="&#x270e;" horiz-adv-x="491" 
d="M409 415q14 -14 20.5 -26t8.5 -20q3 -10 2 -18l-126 -126l-145 -144l-119 -26l25 120l145 144l126 126q8 1 18 -2q8 -2 19.5 -8t25.5 -20zM174 107q-1 6 -4 14q-5 14 -22 33q-9 9 -17.5 14.5t-15.5 7.5q-8 3 -14 3l-11 -12l-9 -40q5 -3 11 -7t12 -10q12 -12 18 -24l40 9z
" />
    <glyph glyph-name="feather" unicode="&#x2712;" horiz-adv-x="450" 
d="M81 6q-2 -8 -12 -4.5t-9 17.5q1 18 7.5 50t17.5 63q-31 47 -34 85t8 73q4 -12 11.5 -28.5t15.5 -32t15.5 -25.5t11.5 -8t1.5 25.5t-5 55.5t-1.5 65.5t12 56.5q6 12 17.5 24.5t24.5 24t26.5 20t23.5 13.5q-9 -18 -13.5 -36t-5.5 -32.5t2 -24t9 -9.5t17 18.5t24.5 41
t27.5 41.5t26 20t27.5 -3.5t30 -11.5t26 -16t14.5 -16q3 -6 3 -16.5t-3 -22.5t-8 -23.5t-12 -18.5q-14 -14 -33 -20.5t-37.5 -9.5t-34.5 -5.5t-25 -7.5q-4 -2 -1 -9t14.5 -13.5t31 -9t49.5 4.5q-24 -34 -51.5 -49t-51.5 -20.5t-40.5 -6t-17.5 -5.5t6 -12.5t18 -13.5t24.5 -9
t26.5 1q-16 -29 -30 -42t-30 -17.5t-35 -5t-44 -4.5q-11 -38 -20 -65.5t-15 -46.5z" />
    <glyph glyph-name="attach" unicode="&#x1f4ce;" horiz-adv-x="569" 
d="M172 5q-24 0 -46 9.5t-39 26.5q-17 16 -26.5 37.5t-10.5 45t9 48t33 47.5l43.5 43.5l67 67l73.5 73.5l64 64q19 19 41.5 26t45.5 1t40 -23t23 -40t-1 -46t-26 -42l-237 -237q-20 -20 -44 -23q-24 -2 -40 14q-14 14 -13.5 37t23.5 46l166 167q5 5 12.5 5t12.5 -5t5 -12.5
t-5 -12.5l-166 -166q-11 -11 -13 -20.5t3 -14.5q6 -4 12 -3q12 2 23 13l237 237q25 25 17 54q-4 14 -14 24t-24 14q-27 7 -54 -18l-247 -247q-18 -18 -25 -36t-6.5 -35.5t7.5 -32.5t18 -26t26 -18t32.5 -7.5t35.5 7t35 24.5l248 247q5 5 12.5 5t12.5 -5t5 -12t-5 -12
l-248 -248q-22 -22 -46 -31.5t-47 -9.5z" />
    <glyph glyph-name="inbox" unicode="&#xe777;" horiz-adv-x="601" 
d="M534 274q9 -10 13.5 -18t1.5 -18l-14 -77q-2 -10 -11 -16.5t-20 -6.5h-408q-11 0 -20 6.5t-11 16.5l-14 77q-2 10 2 18t14 18q3 4 13 14l21.5 21.5t23.5 23t20 19.5q11 11 26 11h129h129q15 0 26 -11q8 -8 20 -19.5l24 -23t21.5 -21.5t13.5 -14zM490 258l-51 57h-278
l-51 -57h89q4 0 6 -4l20 -50h150l20 50q2 4 6 4h89z" />
    <glyph glyph-name="reply" unicode="&#xe712;" horiz-adv-x="550" 
d="M500 80q-23 41 -51.5 65t-62 36.5t-72 16t-83.5 3.5v-109l-181 167l181 161v-96q41 0 74.5 -10.5t60 -27.5t47 -39t35.5 -45q35 -54 52 -122z" />
    <glyph glyph-name="reply-all" unicode="&#xe713;" 
d="M125 259l106 -98v-69l-181 167l181 161v-67zM356 324q34 0 61 -10.5t47 -27.5t34.5 -39t23.5 -45q22 -54 28 -122q-23 41 -45 65t-44.5 36.5t-48 16t-56.5 3.5v-109l-181 167l181 161v-96z" />
    <glyph glyph-name="forward" unicode="&#x27a6;" horiz-adv-x="550" 
d="M320 201q-45 0 -84 -3.5t-72.5 -16t-62 -36.5t-51.5 -65q17 68 52 122q15 23 35.5 45t47.5 39t60.5 27.5t74.5 10.5v96l180 -161l-180 -167v109v0z" />
    <glyph glyph-name="user" unicode="&#x1f464;" horiz-adv-x="570" 
d="M418 139q47 -17 74.5 -33t27.5 -28v-53h-235h-235v53q0 12 27.5 28t74.5 33t64 34.5t17 47.5q0 9 -3 13.5t-7 9.5t-9 13t-8 25q-1 7 -4.5 9l-7 4t-7 8t-4.5 22q0 11 4 17q2 3 5 4q-1 7 -2 15l-2 14t-2 15q-1 9 2.5 23.5t14.5 28t30.5 23.5t51.5 10t52 -10t31 -23.5
t14 -28t2 -23.5q-1 -8 -1.5 -15t-1.5 -14q-1 -8 -3 -15q2 -1 4 -4q2 -2 3.5 -6.5t1.5 -10.5q-1 -16 -4.5 -22t-7 -8l-7 -4t-4.5 -9q-3 -17 -7.5 -25t-9 -13t-7.5 -9.5t-3 -13.5q0 -30 17.5 -47.5t63.5 -34.5z" />
    <glyph glyph-name="users" unicode="&#x1f465;" 
d="M438 30v75q0 13 -3 22.5t-12.5 18t-28 19t-48.5 25.5q11 8 15.5 18t4.5 24q0 6 -2 9t-4.5 6.5t-5 9t-4.5 17.5q-1 5 -3 6t-4 2.5t-4 5.5t-3 15q0 9 3 12q1 2 3 3l-2 10t-1.5 10t-0.5 10q-1 6 1 16t8.5 19.5t18.5 16.5t31 7t31.5 -7t19 -16.5t8.5 -19.5t1 -16
q-1 -5 -1 -10t-1 -10l-2 -10l3 -3q1 -2 2 -4.5t1 -7.5q-1 -11 -3 -15t-4 -5.5t-4 -2.5t-3 -6q-2 -12 -4.5 -17.5t-5 -9t-4.5 -6.5t-2 -9q0 -21 10 -33t39 -24q28 -11 43.5 -20t21.5 -20q2 -4 3.5 -20.5t2.5 -35.5q1 -22 1 -49h-112zM306 161q37 -16 64 -31t27 -31v-69h-347
v92q0 9 4.5 15t11 10.5t13.5 8t13 5.5q38 16 52 31.5t14 44.5q0 8 -2.5 12t-6 8.5t-7.5 12.5t-6 23q-1 6 -4 7.5t-6 3.5t-5.5 7.5t-3.5 20.5q0 10 3 15q2 3 4 4l-2 14q-1 6 -1.5 13t-1.5 14q-1 8 2 21.5t11.5 26t24.5 21.5t42 9t42 -9t24.5 -21.5t11.5 -26t2 -21.5
q-1 -7 -1.5 -14t-1.5 -13l-2 -14q1 -1 3 -4q4 -6 4 -15q-1 -15 -4 -20.5t-6 -7.5t-5.5 -3.5t-3.5 -7.5q-2 -15 -6 -23t-7.5 -12.5t-6 -8.5t-2.5 -12q0 -29 14 -44.5t52 -31.5z" />
    <glyph glyph-name="add-user" unicode="&#xe700;" 
d="M360 139q47 -17 68.5 -33t21.5 -28v-53h-400v101q11 5 23 8t18 5q47 17 64.5 34.5t17.5 47.5q0 9 -3 13.5t-7.5 9.5t-9 13t-7.5 25q-2 7 -5.5 9l-7 4t-7 8t-4.5 22q0 11 4 17q2 3 5 4q-1 7 -2 15l-2 14t-2 15q-1 9 2.5 23.5t14.5 28t31 23.5t52 10q33 0 53 -10t31 -23.5
t14.5 -28t2.5 -23.5q-1 -8 -2 -15l-2 -14q-2 -8 -3 -15q2 -1 4 -4q2 -2 3.5 -6.5t1.5 -10.5q-1 -16 -4.5 -22t-7 -8l-7 -4t-4.5 -9q-3 -17 -8 -25t-9.5 -13t-7.5 -9.5t-3 -13.5q0 -30 17.5 -47.5t65.5 -34.5zM550 275v-50h-75v-75h-50v75h-75v50h75v75h50v-75h75z" />
    <glyph glyph-name="vcard" unicode="&#xe722;" 
d="M500 450q21 0 35.5 -14.5t14.5 -35.5v-300q0 -20 -14.5 -35t-35.5 -15h-400q-20 0 -35 15t-15 35v300q0 21 15 35.5t35 14.5h400zM500 400h-400v-300h400v300zM275 153h-125v45h125v-45zM275 228h-125v45h125v-45zM275 303h-125v45h125v-45zM448 188q1 0 1.5 -5.5
t0.5 -12.5v-17h-125v17q0 7 0.5 12.5t2.5 5.5q11 3 21 8q8 4 14.5 10.5t6.5 14.5t-4 14t-9.5 13.5t-9.5 18t-4 26.5q0 26 9.5 40.5t35.5 14.5t35.5 -14.5t9.5 -40.5q0 -16 -4.5 -26.5t-9.5 -18t-9.5 -13.5t-4.5 -14t6.5 -14.5t14.5 -10.5q10 -5 22 -8z" />
    <glyph glyph-name="export" unicode="&#xe715;" 
d="M425 133l50 41v-94q0 -10 -7 -17.5t-18 -7.5h-375q-11 0 -18 7.5t-7 17.5v275q0 11 7 18t18 7h144q-14 -11 -24 -19.5t-17 -15.5q-8 -8 -13 -15h-65v-225h325v28zM384 279q-41 0 -69.5 -4t-50.5 -16t-41 -34t-40 -57q3 55 25 99q9 19 23.5 37t36 32t50 22.5t66.5 8.5v78
l166 -125l-166 -130v89z" />
    <glyph glyph-name="location" unicode="&#xe724;" horiz-adv-x="350" 
d="M175 450q26 0 48.5 -10t39.5 -27t27 -39.5t10 -48.5q0 -45 -20 -93t-43 -89q-27 -48 -62 -93q-36 45 -63 93q-23 41 -42.5 89t-19.5 93q0 26 10 48.5t27 39.5t39.5 27t48.5 10zM175 256q28 0 48 20t20 48t-20 47.5t-48 19.5t-47.5 -19.5t-19.5 -47.5t19.5 -48t47.5 -20z
" />
    <glyph glyph-name="map" unicode="&#xe727;" 
d="M542 375q8 -5 8 -15v-292q0 -10 -8 -15q-5 -3 -8 -3q-5 0 -9 3l-108 68l-108 -68q-9 -5 -17 0l-109 68l-108 -68q-8 -5 -17 0q-8 5 -8 15v292q0 10 8 15l117 73q8 5 17 0l108 -68l109 68q8 5 16 0zM167 403l-84 -52v-253l84 52v253zM284 351l-84 52v-253l84 -52v253z
M401 403l-85 -52v-253l85 52v253zM517 351l-84 52v-253l84 -52v253z" />
    <glyph glyph-name="compass" unicode="&#xe728;" horiz-adv-x="582" 
d="M288 490q49 1 93 -17.5t77 -50.5t52.5 -75.5t20.5 -92.5q1 -50 -17.5 -94t-50.5 -77t-75.5 -52.5t-93.5 -20.5q-50 0 -93.5 18t-76.5 50.5t-52.5 75.5t-20.5 93t17.5 94t50.5 77t75.5 52.5t93.5 19.5zM294 61q39 0 73 15.5t59.5 41.5t40 61t14.5 74q-1 39 -16.5 73.5
t-41.5 60t-60.5 39.5t-73.5 14t-73.5 -15.5t-60 -41.5t-40 -61t-13.5 -74q0 -39 15.5 -73.5t41.5 -60t61 -39.5t74 -14zM177 138q5 32 14 63q8 26 20 53.5t31 46.5q18 18 46 30t54 20q31 9 63 14q-5 -32 -14 -63q-8 -26 -20.5 -54t-30.5 -46t-46 -30t-54 -20q-31 -9 -63 -14
zM267 276q-11 -10 -11 -24t11 -25q10 -11 24 -11t25 11q15 15 26 41.5t18 51.5q-26 -7 -52 -17.5t-41 -26.5z" />
    <glyph glyph-name="direction" unicode="&#x27a2;" horiz-adv-x="530" 
d="M474 459q5 -5 5.5 -11t-3 -14.5t-10 -20.5t-14.5 -30q-23 -48 -54.5 -107.5t-60.5 -113.5q-34 -62 -70 -127l-27 190l-190 28q64 36 126 69q27 14 56 29.5t58 30.5t56.5 29t51.5 26q35 17 50 25t26 -3zM276 271l14 -117l138 257z" />
    <glyph glyph-name="hair-cross" unicode="&#x1f3af;" horiz-adv-x="530" 
d="M265 465q45 0 84 -17t68 -46t46 -68t17 -84q0 -44 -17 -83.5t-46 -68.5t-68 -46t-84 -17t-84 17t-68 46t-46 68.5t-17 83.5q0 45 17 84t46 68t68 46t84 17zM283 76q31 3 58 16.5t48 34.5t34 48t16 58h-96v35h96q-3 31 -16 58t-34 48t-48 34.5t-58 16.5v-97h-35v97
q-31 -3 -58.5 -16.5t-48.5 -34.5t-34 -48t-16 -58h97v-35h-97q3 -31 16 -58t34 -48t48.5 -34.5t58.5 -16.5v97h35v-97z" />
    <glyph glyph-name="share" unicode="&#xe73c;" horiz-adv-x="500" 
d="M375 175q32 0 53.5 -21.5t21.5 -53.5q0 -31 -21.5 -53t-53.5 -22q-31 0 -53 22t-22 53q0 4 0.5 7t0.5 6l-130 78q-21 -16 -46 -16q-31 0 -53 22t-22 53q0 32 22 53.5t53 21.5q26 0 46 -15l130 78q0 3 -0.5 6t-0.5 6q0 32 22 53.5t53 21.5q32 0 53.5 -21.5t21.5 -53.5
q0 -31 -21.5 -53t-53.5 -22q-26 0 -45 16l-131 -78q1 -4 1 -13q0 -8 -1 -12l131 -78q18 15 45 15z" />
    <glyph glyph-name="shareable" unicode="&#xe73e;" 
d="M220 250q0 34 23.5 57t56.5 23t56.5 -23t23.5 -57q0 -33 -23.5 -56.5t-56.5 -23.5t-56.5 23.5t-23.5 56.5zM163 280q-2 -7 -8 -18.5t-25 -11.5h-80v60h59q10 31 28.5 56.5t43.5 44t55.5 29t63.5 10.5q42 0 78 -15.5t64 -42.5q8 -9 8 -21.5t-8 -21.5q-9 -8 -21.5 -8
t-21.5 8q-39 41 -99 41q-51 0 -88.5 -31t-48.5 -79zM550 250v-60h-59q-10 -30 -28.5 -56t-43 -44.5t-55 -29t-64.5 -10.5q-42 0 -78 16t-63 43q-9 9 -9 21.5t9 20.5q8 9 20.5 9t21.5 -9q19 -19 44.5 -30t54.5 -11q51 0 88.5 31.5t48.5 78.5q2 8 8 19t25 11h80z" />
    <glyph glyph-name="heart" unicode="&#x2665;" horiz-adv-x="532" 
d="M446 397q18 -16 26.5 -36.5t8.5 -41.5t-8.5 -42t-26.5 -37l-180 -165l-180 165q-18 16 -26.5 37t-8.5 42t8.5 41.5t26.5 36.5q16 14 35.5 21t40.5 7t40.5 -7t35.5 -21l28 -26l29 26q15 14 35 21t40.5 7t40 -7t35.5 -21z" />
    <glyph glyph-name="heart-empty" unicode="&#x2661;" horiz-adv-x="532" 
d="M446 396q18 -16 26.5 -36.5t8.5 -41.5t-8.5 -41.5t-26.5 -36.5l-180 -165l-180 165q-18 16 -26.5 36.5t-8.5 41.5t8.5 41.5t26.5 36.5q16 15 35.5 22t40 7t40.5 -7t35 -22l29 -26l28 26q32 29 76 29t76 -29zM419 266q21 20 21 52q0 15 -3.5 27t-15.5 23
q-10 10 -23.5 14.5t-27.5 4.5q-15 0 -28 -7t-24 -17l-52 -46l-53 46q-10 10 -23.5 17t-27.5 7q-32 0 -52 -19q-11 -11 -15 -23t-4 -27t5 -28t17 -24l153 -143z" />
    <glyph glyph-name="star" unicode="&#x2605;" horiz-adv-x="540" 
d="M270 470l60 -168h160l-131 -98l47 -174l-136 104l-136 -104l47 174l-131 98h160l60 168v0z" />
    <glyph glyph-name="star-empty" unicode="&#x2606;" horiz-adv-x="540" 
d="M490 302l-131 -98l47 -174l-136 104l-136 -104l47 174l-131 98h160l60 168l60 -168h160zM270 183l75 -62l-31 89l72 57l-88 -2l-28 101l-27 -101l-88 2l71 -57l-31 -89z" />
    <glyph glyph-name="thumbs-up" unicode="&#x1f44d;" horiz-adv-x="500" 
d="M341 315q1 -3 18.5 -5t37.5 -6t36.5 -11t16.5 -20q0 -9 -4 -30.5t-10 -49t-14.5 -57.5t-18 -54.5t-19 -40.5t-18.5 -16q-35 0 -73 5.5t-70 15t-52.5 21t-20.5 23.5v171q0 10 12.5 23t30.5 26.5t37 26t31 21.5q22 15 41.5 37t34 41t24.5 31t15 6q20 -25 17 -51.5t-15 -49
t-25 -38.5t-12 -19zM125 313q6 0 3 -3t-9 -10t-12.5 -18.5t-6.5 -27.5v-159q0 -16 6.5 -27t12.5 -17.5t9 -9.5t-3 -3t-18.5 2.5t-25 10t-22 22.5t-9.5 41v121q0 25 9.5 40.5t22 24t25 11t18.5 2.5z" />
    <glyph glyph-name="thumbs-down" unicode="&#x1f44e;" horiz-adv-x="500" 
d="M159 184q-1 3 -18 5t-37.5 6t-37 11t-16.5 20q0 8 4 30t10.5 49.5t15 57.5t17.5 55t18.5 41t18.5 16q35 0 73 -6t70 -15t52.5 -21t20.5 -24v-171q0 -10 -12.5 -23t-30 -26.5t-36.5 -26t-32 -21.5q-23 -15 -41.5 -37t-33.5 -41t-25 -31t-15 -6q-20 25 -17 51.5t15 49
t25 38.5t12 19zM375 186q-6 0 -3 3t9.5 10t12.5 18t6 28v159q0 16 -6 26.5t-12.5 17.5t-9.5 10t3 3t18.5 -2.5t25 -10t22 -23t9.5 -40.5v-121q0 -26 -9.5 -41t-22 -23.5t-25 -11t-18.5 -2.5z" />
    <glyph glyph-name="chat" unicode="&#xe720;" 
d="M370 195q2 0 3 0.5t2 0.5v-46q0 -20 -14.5 -35t-35.5 -15h-125l-75 -75v75h-25q-20 0 -35 15t-15 35v150q0 21 15 35.5t35 14.5h95v-155h175zM500 475q21 0 35.5 -14.5t14.5 -35.5v-150q0 -20 -14.5 -35t-35.5 -15h-25v-75l-75 75h-175v200q0 21 15 35.5t35 14.5h225z
" />
    <glyph glyph-name="comment" unicode="&#xe718;" horiz-adv-x="500" 
d="M400 425q21 0 35.5 -14.5t14.5 -35.5v-175q0 -20 -14.5 -35t-35.5 -15h-100v-75l-100 75h-100q-20 0 -35 15t-15 35v175q0 21 15 35.5t35 14.5h300v0z" />
    <glyph glyph-name="quote" unicode="&#x275e;" horiz-adv-x="481" 
d="M123 415q42 0 65 -24.5t29.5 -61t-2.5 -79.5t-31 -79.5t-56.5 -61t-77.5 -24.5v35q36 0 62.5 22.5t38 50t5.5 50t-33 22.5q-30 0 -51.5 22t-21.5 53q0 32 21.5 53.5t51.5 21.5zM333 415q42 0 65 -24.5t29.5 -61t-2.5 -79.5t-31 -79.5t-56.5 -61t-77.5 -24.5v35
q36 0 62.5 22.5t38 50t5.5 50t-33 22.5q-30 0 -51.5 22t-21.5 53q0 32 21.5 53.5t51.5 21.5z" />
    <glyph glyph-name="home" unicode="&#x2302;" horiz-adv-x="551" 
d="M494 243q8 -8 5.5 -13.5t-13.5 -5.5h-42v-155q0 -8 -2 -14t-14 -6h-102v155h-102v-155h-97q-15 0 -18 6t-3 14v155h-42q-11 0 -13.5 5.5t5.5 13.5l200 201q8 8 19 8t19 -8l200 -201v0z" />
    <glyph glyph-name="popup" unicode="&#xe74c;" horiz-adv-x="500" 
d="M400 450q21 0 35.5 -14.5t14.5 -35.5v-200q0 -20 -14.5 -35t-35.5 -15h-200q-20 0 -35 15t-15 35v201q0 20 14.5 34.5t35.5 14.5h200zM400 400h-200v-200h200v200zM100 100h150v-50h-150q-20 0 -35 15t-15 35v150h50v-150z" />
    <glyph glyph-name="search" unicode="&#x1f50d;" horiz-adv-x="495" 
d="M436 114q15 -17 3 -31l-23 -23q-8 -7 -17.5 -7t-16.5 7l-95 95q-17 -10 -37 -15.5t-41 -5.5q-32 0 -61 13t-50.5 34.5t-34.5 50.5t-13 61t12 60.5t33 49.5t49 33t60 12t61 -13t51 -34.5t35 -50.5t13 -61q0 -44 -23 -81zM97 293q0 -22 9 -42.5t24.5 -36t36 -24.5t42.5 -9
t41.5 8.5t34 23t23 34t8.5 42.5q0 22 -9 42t-24.5 35.5t-36 24.5t-42.5 9t-41.5 -8.5t-34 -23t-23 -34t-8.5 -41.5z" />
    <glyph glyph-name="flashlight" unicode="&#x1f526;" horiz-adv-x="551" 
d="M454 428q31 -32 42 -65t-2 -46l-67 -67q-8 -8 -30.5 -13t-48.5 -2l-204 -204q-9 -9 -28.5 -3t-37.5 25q-18 18 -24.5 37t2.5 28l204 204q-3 26 2 48.5t13 30.5l68 68q13 13 46 1.5t65 -42.5zM230 224q7 -7 18.5 -5t21.5 12t12 21.5t-5 19.5q-7 7 -19 5t-22 -12t-12 -21.5
t6 -19.5zM398 373q12 -12 25.5 -20t25 -12.5t19.5 -5.5t9 0t-0.5 8.5t-6 18.5t-13 24.5t-20.5 25.5t-25 20t-24 12.5t-18.5 6t-8.5 0.5t0 -9t5.5 -19t12 -24.5t19.5 -25.5z" />
    <glyph glyph-name="print" unicode="&#xe716;" horiz-adv-x="590" 
d="M83 338q-11 0 -10.5 8t5.5 10q3 1 17 6t30.5 11t32 10.5t20.5 4.5h22v75h190v-75h23q5 0 20 -4.5t31.5 -10.5t30.5 -11t17 -6q6 -2 6.5 -10t-10.5 -8h-425zM513 310q10 0 18.5 -9.5t8.5 -20.5v-87q0 -11 -8.5 -20.5t-18.5 -9.5h-50l22 -125h-380l22 125h-49
q-11 0 -19.5 9.5t-8.5 20.5v87q0 11 8.5 20.5t19.5 9.5h435zM435 88l-35 162h-210l-35 -162h280z" />
    <glyph glyph-name="bell" unicode="&#x1f514;" horiz-adv-x="500" 
d="M366 288q9 -20 20.5 -26.5t22.5 -11t21.5 -11.5t17.5 -27q5 -15 -4.5 -36t-31 -43.5t-54 -43.5t-73.5 -36t-79.5 -20.5t-69 -2.5t-51.5 13t-26 25q-7 20 -3.5 32t9.5 22.5t10.5 23t-1.5 33.5q-12 49 -19 85.5t-4.5 65t16 51t40.5 44.5q10 8 12 15t3 12t3 9.5t11 8.5
q9 3 13.5 1t8.5 -5.5t10 -7t19 -3.5q35 1 59 -8t43.5 -29t37.5 -52t39 -78zM273 86q36 13 63.5 31t45.5 35t26 30t7 17q-3 7 -15.5 12.5t-35.5 6.5t-55 -5t-74 -21t-70 -32.5t-45 -33t-23 -28t-4 -18.5q1 -3 15.5 -7.5t39 -6t57 2t68.5 17.5zM242 173q5 2 9.5 3.5t9.5 3.5
q0 -1 1 -1q7 -20 -8.5 -41t-44.5 -32q-23 -8 -43.5 -6t-32.5 13q17 15 44 30.5t65 29.5z" />
    <glyph glyph-name="link" unicode="&#x1f517;" horiz-adv-x="500" 
d="M197 133q7 8 17 8t18 -8q7 -8 7 -17.5t-7 -17.5l-21 -20q-28 -28 -66 -28q-39 0 -67 28t-28 66q0 39 28 67l74 74q35 35 72 39t64 -22q8 -8 8 -18t-8 -18q-8 -7 -17.5 -7t-17.5 7q-8 8 -17 8.5t-18 -3t-17 -10t-14 -12.5l-74 -73q-13 -13 -13 -32t13 -31q13 -13 31.5 -13
t31.5 13zM422 420q28 -28 28 -66q0 -39 -28 -67l-79 -79q-38 -36 -75 -36q-31 0 -56 25q-7 7 -7 17t7 18q8 7 18 7t17 -7q3 -3 8 -6.5t12 -4t17 4t24 18.5l79 78q14 14 14 32q0 19 -14 31q-11 12 -27.5 15.5t-30.5 -10.5l-25 -25q-8 -8 -18 -8t-17 8q-8 8 -8 17.5t8 17.5
l25 25q27 27 63 25.5t65 -30.5z" />
    <glyph glyph-name="flag" unicode="&#x2691;" horiz-adv-x="551" 
d="M487 383q7 3 11.5 -0.5t-0.5 -9.5q-44 -64 -74 -97.5t-51.5 -47t-36 -11t-27 11t-25.5 19t-31 13.5t-43.5 -6.5t-62.5 -40.5l45 -176h-50l-92 360l46 17q42 30 69 40.5t45.5 7t31.5 -16.5t26 -29t28.5 -31.5t40 -23t61 -4t89.5 24.5z" />
    <glyph glyph-name="cog" unicode="&#x2699;" horiz-adv-x="520" 
d="M430 250q0 -20 11 -35t29 -26q-6 -20 -17 -41q-20 5 -37 -1.5t-31 -20.5q-27 -29 -17 -68q-20 -11 -42 -18q-11 19 -28.5 30t-37.5 11t-37.5 -11t-28.5 -30q-23 7 -42 18q10 40 -17 68q-27 27 -68 17q-5 10 -9 20t-8 21q18 11 29.5 28.5t11.5 37.5t-11.5 35.5t-29.5 26.5
q4 11 8 21t9 20q21 -5 37.5 1.5t30.5 20.5q27 27 17 68q21 11 42 17q11 -18 28.5 -29t37.5 -11t37.5 11t28.5 29q21 -6 42 -17q-10 -39 17 -68q14 -14 31 -20.5t37 -1.5q11 -21 17 -41q-18 -11 -29 -26.5t-11 -35.5zM260 159q19 0 35.5 7t29 19.5t19.5 29t7 35.5t-7 36
t-19.5 29.5t-29 19.5t-35.5 7t-35.5 -7t-29 -19.5t-19.5 -29.5t-7 -36q0 -38 26.5 -64.5t64.5 -26.5z" />
    <glyph glyph-name="tools" unicode="&#x2692;" horiz-adv-x="599" 
d="M127 328q-8 -6 -7 -17t-1 -12q-2 -2 -8.5 -7.5t-9.5 -8.5q-4 -3 -8 -1.5t-6 3.5q-2 1 -7.5 7t-11.5 13l-16 18q-5 6 1 12q2 2 9 7t10 8q6 5 13.5 3t18.5 7q10 9 9.5 19t4.5 15q2 1 10 8.5t28 21.5q8 5 19 12.5t23.5 15t25.5 13t25 7.5h13h22t23 -0.5t16 -0.5q7 0 -1 -3
t-22.5 -9.5t-32.5 -15t-31 -19.5t-17.5 -24t6.5 -28q5 -7 11 -14.5t8 -9.5q4 -4 -1 -7q-1 -1 -6.5 -6t-12.5 -11.5t-12.5 -11.5t-6.5 -6q-2 -1 -4.5 -2.5t-4.5 0.5q-20 23 -35.5 30.5t-33.5 -6.5zM475 77q9 -11 -1 -19l-24 -21q-11 -7 -19 2l-207 236q-4 4 0 10l36 31
q6 4 10 -1zM547 416q1 -5 1.5 -15.5t0 -22.5t-3 -24t-6.5 -21q-11 -19 -28.5 -29t-48.5 -2q-14 3 -28 -2.5t-22 -13.5l-41 -39l-34 39l34 35q10 10 13.5 21t4 21.5t0.5 22t3 23.5t13 21.5t21.5 16.5t22 11.5t13.5 6.5q7 3 9.5 -2t0.5 -7q-1 -1 -4 -6t-6.5 -11.5t-7 -12.5
t-5.5 -10q-2 -3 -4 -7.5t-1.5 -10t4.5 -12t15 -14.5q10 -7 18 -7.5t14 2.5t10 7.5t6 8.5q5 8 13.5 20.5t10.5 16.5t6 4.5t6 -8.5zM245 198l38 -43l-123 -121q-4 -4 -9 -5t-10 3l-23 23q-5 4 -5 9.5t5 9.5z" />
    <glyph glyph-name="trophy" unicode="&#x1f3c6;" horiz-adv-x="550" 
d="M305 109q35 -4 58 -16t23 -28q0 -18 -32 -31.5t-79 -13.5q-46 0 -78.5 13.5t-32.5 31.5q0 16 23.5 28t58.5 16v33q0 27 -19.5 45t-53.5 41q-21 13 -42.5 29.5t-39.5 38t-29.5 51t-11.5 70.5q0 7 5 12t13 5h86q9 17 37.5 31.5t83.5 14.5t84 -14.5t38 -31.5h85q8 0 13 -5
t5 -12q0 -41 -11.5 -70.5t-29.5 -51t-39.5 -38t-42.5 -29.5q-34 -23 -53 -41t-19 -45v-33zM374 268q16 11 31.5 23.5t27.5 28t20.5 35t10.5 44.5h-63q-2 -45 -9 -76.5t-18 -54.5zM275 450q-26 0 -44 -4.5t-29 -10.5t-16.5 -12.5t-5.5 -10.5t5.5 -10.5t16.5 -13t29 -11
t44 -4.5q25 0 43.5 4.5t29.5 11t16.5 13t5.5 10.5t-5.5 10.5t-16.5 12.5t-29.5 10.5t-43.5 4.5zM86 399q2 -25 10.5 -44.5t20.5 -35t27.5 -28t31.5 -23.5q-11 23 -18 54.5t-9 76.5h-63z" />
    <glyph glyph-name="tag" unicode="&#xe70c;" horiz-adv-x="580" 
d="M522 490q10 -29 7.5 -55.5t-13.5 -49t-27.5 -41.5t-34.5 -32l9 -12q3 -5 4 -13t-1 -14l-24 -79q-2 -5 -7.5 -12t-10.5 -11l-232 -164q-8 -6 -17 -6.5t-15 8.5l-105 152q-6 9 -4.5 19.5t10.5 16.5l232 164q5 4 13 6.5t14 2.5h79q6 0 13 -4t11 -9l14 -20q13 10 27 24.5
t23.5 32.5t12.5 39.5t-6 46.5q-2 6 1 12t8 8q6 2 11.5 -1t7.5 -9zM414 256q20 16 17 40q-5 -2 -8.5 -4t-7.5 -4t-6 -2q-9 0 -14 9q-2 6 0 12t8 8l12 7q-11 8 -23 8t-23 -8q-14 -9 -17 -25.5t7 -30.5q9 -14 25 -16.5t30 6.5z" />
    <glyph glyph-name="camera" unicode="&#x1f4f7;" 
d="M300 300q32 0 53.5 -21.5t21.5 -53.5q0 -31 -21.5 -53t-53.5 -22q-31 0 -53 22t-22 53q0 32 22 53.5t53 21.5zM500 375q21 0 35.5 -14.5t14.5 -35.5v-225q0 -20 -14.5 -35t-35.5 -15h-400q-20 0 -35 15t-15 35v225q0 21 15 35.5t35 14.5h60q6 0 12 4.5t8 10.5l15 46
q2 6 8 10t12 4h170q6 0 12 -4t8 -10l15 -46q2 -6 8 -10.5t12 -4.5h60zM300 100q26 0 48.5 10t39.5 27t27 39.5t10 48.5t-10 48.5t-27 39.5t-39.5 27t-48.5 10t-48.5 -10t-39.5 -27t-27 -39.5t-10 -48.5t10 -48.5t27 -39.5t39.5 -27t48.5 -10zM483 290q7 0 12 5t5 13t-5 12.5
t-12 4.5q-8 0 -13 -4.5t-5 -12.5t5 -13t13 -5z" />
    <glyph glyph-name="megaphone" unicode="&#x1f4e3;" horiz-adv-x="531" 
d="M446 325q15 -35 23.5 -68.5t10.5 -61t-3 -46t-17 -23.5q-16 -6 -30 2t-33.5 19.5t-48.5 20.5t-75 4q-14 -2 -21.5 -9.5t-2.5 -18.5q1 -4 4.5 -11t7 -15.5t6.5 -16t5 -11.5q3 -8 12 -11t12 -10t0.5 -13.5t-11.5 -9.5q-4 -2 -11.5 -5l-15 -6t-14.5 -5.5t-10 -3.5
q-7 -2 -14.5 4.5t-12.5 16.5q-2 4 -5.5 12.5t-8 18.5t-8.5 19.5t-7 15.5q-2 5 -6.5 6.5t-9.5 2.5t-11.5 3.5t-12.5 11.5q-4 -2 -8 -3q-3 -2 -6 -2.5t-5 -1.5q-9 -3 -18.5 -1t-18.5 7t-16.5 13t-10.5 17q-8 17 -3 39.5t22 30.5q67 27 107 54t61.5 51.5t29.5 46t12 39t8 29.5
t18 18q12 5 29 -5t36 -30.5t37.5 -50t33.5 -63.5zM432 175q3 1 4 12t-0.5 28.5t-7 41t-17.5 50.5t-25.5 49t-26 37t-21.5 22.5t-12 6.5t-4.5 -13t0 -31t7 -44t17.5 -52t25.5 -47.5t26.5 -34t22 -20t12 -5.5z" />
    <glyph glyph-name="moon" unicode="&#x263d;" horiz-adv-x="511" 
d="M312 194q27 27 42.5 59t20 66.5t-2 69.5t-24.5 66q25 -14 48 -36q32 -32 48 -72.5t16 -82.5t-16 -82t-48 -72t-72.5 -48.5t-82.5 -16.5t-82.5 16.5t-72.5 48.5q-20 20 -36 47q31 -17 66 -23.5t69.5 -2t67 20t59.5 42.5z" />
    <glyph glyph-name="palette" unicode="&#x1f3a8;" horiz-adv-x="591" 
d="M479 386q30 -20 43.5 -42t16.5 -41t-2.5 -32.5t-14.5 -15.5t-20.5 2.5t-25.5 7t-29.5 -1t-31.5 -21.5q-13 -14 -11.5 -28t8 -26.5t14.5 -23t7 -17.5q0 -8 -10.5 -22t-33 -28.5t-58.5 -25.5t-87 -11q-48 0 -85 14t-62 37.5t-37 55t-9 66.5q2 29 16 59.5t35.5 57.5t50 47
t58.5 29q78 23 143.5 11t124.5 -51zM320 153q15 0 26 11t11 27t-11 26.5t-26 10.5q-16 0 -27 -10.5t-11 -26.5t11 -27t27 -11z" />
    <glyph glyph-name="leaf" unicode="&#x1f342;" horiz-adv-x="570" 
d="M168 398q32 19 72.5 27.5t81.5 10t79.5 -2.5t66.5 -10t42 -12.5t8 -9.5q-42 -23 -64.5 -55t-39 -66t-33 -65.5t-46.5 -52.5q-22 -15 -48 -20t-51.5 -3t-49.5 8t-42 13q-10 -11 -20 -25q-8 -12 -18 -28t-19 -35q-3 -6 -10 -6.5t-13.5 3t-10.5 9t-2 10.5q14 34 36.5 63.5
t49 54.5t55.5 46t57 38q66 40 140 68q-54 -1 -108 -15q-47 -13 -100 -41t-100 -83q-1 12 -1 34t7.5 47t26 51t54.5 47z" />
    <glyph glyph-name="note" unicode="&#x266a;" horiz-adv-x="391" 
d="M241 485q0 -17 11 -32.5t26 -32t31 -34t24.5 -38t7 -45t-20.5 -53.5q-8 -13 -11.5 -10.5t-1.5 10.5q3 9 3 28t-6.5 39t-21.5 36.5t-41 20.5v-268q1 -24 -18.5 -47.5t-52.5 -35.5q-38 -14 -71.5 -4t-44.5 38q-10 28 10 57t58 43q21 8 41.5 8t37.5 -6v326h40v0z" />
    <glyph glyph-name="beamed-notes" unicode="&#x266b;" horiz-adv-x="471" 
d="M420 490v-352q1 -21 -15 -40.5t-43 -29.5q-32 -12 -55 -3.5t-31 31.5t3 48t43 37q14 5 27.5 6t25.5 -1v188l-177 -41v-245q0 -21 -16 -40.5t-43 -29.5q-32 -12 -54.5 -3.5t-30.5 31.5q-9 23 2 48t43 37q14 5 28 6t26 -1v296z" />
    <glyph glyph-name="new" unicode="&#x1f4a5;" horiz-adv-x="552" 
d="M493 192q10 -8 8 -16.5t-14 -11.5l-39 -11q-12 -3 -20 -14t-7 -24l2 -41q1 -12 -7 -17t-19 0l-43 22q-11 6 -23.5 2t-17.5 -15l-23 -44q-6 -11 -14.5 -12t-16.5 10l-25 39q-8 11 -20.5 13.5t-23.5 -3.5l-61 -35q-11 -7 -16 -3t-1 16l27 82q4 12 -2 21.5t-18 11.5l-53 6
q-12 2 -14.5 9t7.5 15l43 38q10 8 10 20.5t-10 20.5l-43 38q-10 8 -8 16.5t14 11.5l39 11q12 3 20.5 14t7.5 24l-3 41q0 13 7.5 18t18.5 0l40 -19q12 -5 24.5 -1t18.5 15l23 40q6 11 15 10.5t15 -11.5l25 -43q6 -11 17.5 -14.5t22.5 3.5l68 42q11 7 15.5 3t-0.5 -16l-30 -85
q-5 -11 1 -20.5t19 -10.5l57 -6q13 -1 15 -8t-8 -15l-43 -38q-9 -8 -9 -20.5t9 -20.5zM301 198h-50v-52h50v52zM301 356h-50v-130h50v130z" />
    <glyph glyph-name="graduation-cap" unicode="&#x1f393;" 
d="M300 110l138 68q-4 -18 -5 -29t-4 -18.5t-11.5 -13.5t-26.5 -14q-38 -17 -57.5 -30t-33.5 -13t-34.5 14.5t-57.5 30.5t-52 35t-23 54zM538 317q12 -7 12 -16.5t-12 -16.5l-39 -22l-154 51q-11 18 -45 18q-20 0 -33.5 -8t-13.5 -20t13.5 -20t33.5 -8q13 0 18 2l146 -34
l-134 -76q-13 -7 -30 -7t-30 7l-208 117q-12 7 -12 16.5t12 16.5l208 117q13 7 30 7t30 -7zM474 96q8 45 7 73t-5 45q-4 19 -12 29l35 19q7 -12 11 -34q3 -19 4 -50t-4 -79q-2 -11 -7.5 -14t-12 -1.5t-11.5 5.5t-5 7z" />
    <glyph glyph-name="book" unicode="&#x1f4d5;" horiz-adv-x="450" 
d="M391 372q9 -5 9 -14v-281q0 -7 -6 -12.5t-14 -5.5t-15.5 4t-7.5 14v261q0 4 -0.5 5.5t-5.5 3.5q-1 0 -10.5 5t-23.5 12.5t-32 17.5t-37 20q-44 24 -99 53q-2 1 -11 2t-23 -7q-13 -6 -19.5 -12.5t-8.5 -9.5l204 -114q9 -5 9 -14v-275q0 -11 -9 -14q-3 -2 -8 -2q-7 0 -10 2
q-1 1 -16 10.5t-37 23t-47.5 29.5t-48 30t-39 24t-19.5 12q-5 3 -9 7.5t-4 9.5l-3 262q0 4 1 10.5t6 15.5q7 10 20.5 20.5t29.5 17.5t32 9t27 -4l225 -116v0z" />
    <glyph glyph-name="newspaper" unicode="&#x1f4f0;" horiz-adv-x="500" 
d="M400 475q21 0 35.5 -14.5t14.5 -35.5v-350q0 -20 -14.5 -35t-35.5 -15h-300q-20 0 -35 15t-15 35v350q0 21 15 35.5t35 14.5h300zM400 425h-300v-350h300v350zM275 175h-125v25h125v-25zM350 275h-100v25h100v-25zM250 375h100v-50h-100v50zM225 275h-75v100h75v-100z
M200 225h-50v25h50v-25zM225 250h125v-25h-125v25zM350 125h-200v25h200v-25zM300 200h50v-25h-50v25z" />
    <glyph glyph-name="bag" unicode="&#x1f45c;" horiz-adv-x="531" 
d="M468 409q6 -5 10 -12t2 -18q0 -3 -2.5 -18t-6 -38.5t-8 -52t-8.5 -58.5q-11 -70 -24 -157q-2 -6 -7.5 -10.5t-11.5 -4.5h-293q-7 0 -12.5 4.5t-7.5 10.5q-13 87 -24 157q-5 30 -9 58.5t-7.5 52t-5.5 38.5t-2 18q-2 11 2 18t9 12q3 2 10.5 8.5t16.5 13t17 13t11 8.5
q6 5 14 6.5t14 1.5h240q7 0 14.5 -1.5t13.5 -6.5q3 -2 11 -8.5t17 -13t16.5 -13t10.5 -8.5zM265 191q30 0 49.5 18.5t30.5 42t16 46.5t6 32h-46q-3 -13 -7 -29.5t-11 -30.5t-16 -24t-22 -10q-12 0 -21.5 10t-16.5 24t-11 30.5t-7 29.5h-46q1 -9 6 -32t16 -46.5t30.5 -42
t49.5 -18.5zM441 375l-55 58h-242l-55 -58h352z" />
    <glyph glyph-name="airplane" unicode="&#x2708;" 
d="M246 215h-90l-56 -50h-50l40 85l-40 85h50l56 -50h90l-62 200h50l112 -200h129q20 0 37 -4q14 -3 26 -10.5t12 -20.5q0 -14 -12 -21t-26 -10q-17 -4 -37 -4h-129l-112 -200h-50z" />
    <glyph glyph-name="lifebuoy" unicode="&#xe788;" horiz-adv-x="562" 
d="M278 480q48 1 90 -16.5t73.5 -48t50 -72t19.5 -89.5t-16.5 -90t-48.5 -74t-72.5 -50.5t-89.5 -19.5q-48 0 -90 17.5t-73.5 48t-50 72t-19.5 89.5t16.5 90t48.5 73.5t72.5 50.5t89.5 19zM278 450q-47 0 -89 -22l31 -52q28 14 61 14t61 -14l31 52q-44 23 -95 22zM155 189
q-14 30 -14 61q0 32 14 62l-51 31q-23 -44 -23 -95q1 -48 23 -90zM284 50q49 2 89 23l-31 52q-14 -7 -29 -11t-32 -4t-32 4t-29 11l-31 -52q43 -23 95 -23zM281 140q23 0 43 8.5t35 23.5t23.5 35t8.5 43t-8.5 43t-23.5 35t-35 23.5t-43 8.5t-43 -8.5t-35 -23.5t-23.5 -35
t-8.5 -43t8.5 -43t23.5 -35t35 -23.5t43 -8.5zM459 158q11 22 17 45.5t5 49.5q0 48 -22 90l-52 -31q14 -30 14 -62q0 -31 -14 -61z" />
    <glyph glyph-name="eye" unicode="&#xe70a;" 
d="M300 390q61 0 108 -19t78.5 -43.5t47.5 -47.5t16 -30t-16 -30t-47.5 -47.5t-78.5 -43.5t-108 -19q-62 0 -108.5 19t-78 43.5t-47.5 47.5t-16 30t16 30t47.5 47.5t78 43.5t108.5 19zM300 143q23 0 43 8.5t35 23t24 34t9 41.5t-9 42t-24 34.5t-35 23t-43 8.5t-43 -8.5
t-35 -23t-24 -34.5t-9 -42t9 -41.5t24 -34t35 -23t43 -8.5zM300 250q3 -3 12.5 -1.5t19 3.5t17 2.5t7.5 -4.5q0 -22 -16.5 -37.5t-39.5 -15.5t-39 15.5t-16 37.5q0 23 16 38.5t39 15.5q6 0 5.5 -7t-3 -16t-4.5 -18t2 -13z" />
    <glyph glyph-name="clock" unicode="&#x1f554;" horiz-adv-x="560" 
d="M280 480q48 0 89.5 -18t73 -49.5t49.5 -73t18 -89.5t-18 -89.5t-49.5 -73t-73 -49.5t-89.5 -18t-89.5 18t-73 49.5t-49.5 73t-18 89.5t18 89.5t49.5 73t73 49.5t89.5 18zM280 70q37 0 70 14t57.5 38.5t38.5 57.5t14 70t-14 70t-38.5 57.5t-57.5 38.5t-70 14t-70 -14
t-57.5 -38.5t-38.5 -57.5t-14 -70t14 -70t38.5 -57.5t57.5 -38.5t70 -14zM298 258l75 -75l-25 -25l-85 85v137h35v-122z" />
    <glyph glyph-name="mic" unicode="&#x1f3a4;" horiz-adv-x="420" 
d="M360 319q10 0 10 -10v-69q0 -21 -8 -41.5t-24.5 -38t-42 -29.5t-60.5 -15v-66h65q10 0 10 -10v-30q0 -10 -10 -10h-180q-10 0 -10 10v30q0 10 10 10h65v66q-35 3 -60.5 15t-42 29.5t-24.5 38t-8 41.5v69q0 10 10 10h15q10 0 10 -10v-69q0 -12 5.5 -28t20 -29.5t38.5 -23
t61 -9.5t61 9.5t38.5 23t20 29.5t5.5 28v69q0 10 10 10h15zM210 200q-22 0 -36.5 4t-23 10t-12 13t-3.5 13v79h150v-79q0 -6 -3.5 -13t-12 -13t-23 -10t-36.5 -4zM285 354h-150v106q0 12 15.5 26t59.5 14t59.5 -14t15.5 -26v-106z" />
    <glyph glyph-name="calendar" unicode="&#x1f4c5;" horiz-adv-x="550" 
d="M450 425q21 0 35.5 -14.5t14.5 -35.5v-300q0 -20 -14.5 -35t-35.5 -15h-350q-20 0 -35 15t-15 35v300q0 21 15 35.5t35 14.5h23v-50h80v50h145v-50h80v50h22zM450 275h-350v-200h350v200zM180 390h-35v85h35v-85zM405 390h-35v85h35v-85z" />
    <glyph glyph-name="bolt" unicode="&#x26a1;" horiz-adv-x="302" 
d="M71 25q-1 1 4 15t14 34t19.5 43.5t19 44t14.5 34.5t5 16q-1 3 -15.5 9t-32 13.5t-32 15t-16.5 12.5q-1 3 11.5 20.5t32 41.5t43 51t44 49.5t34.5 37t15 13.5t-4 -15t-14 -34t-19 -43.5t-19 -44t-15 -34.5t-5 -15q1 -2 15.5 -8t32 -13.5t32.5 -15t16 -13.5q1 -4 -12 -21
t-32.5 -41t-42.5 -51t-43.5 -50t-34.5 -37.5t-15 -13.5z" />
    <glyph glyph-name="thunder-cloud" unicode="&#x26c8;" 
d="M430 322q25 0 47 -9t38 -25t25.5 -37.5t9.5 -45.5t-9.5 -45.5t-25.5 -37.5t-38 -25t-47 -9h-289q-19 0 -35.5 7t-29 19t-19.5 28t-7 34q0 37 26.5 63t64.5 26q2 0 5 -0.5t5 -0.5q-1 5 -1 9.5v9.5q0 27 10.5 50.5t28.5 41.5t42 28t52 10q45 0 80 -26t47 -67q5 1 10 1.5
t10 0.5zM334 214q7 8 7 15t-5 10.5t-10 5.5h-2q-5 2 -10.5 4.5t-8.5 3.5l25 58q3 0 3 10q0 7 -4 9q-5 3 -10 0.5t-7 -4.5q-1 -1 -10 -10.5t-20 -21.5l-22 -24t-16 -19q-6 -9 -6 -15q0 -7 5 -10t10 -5l2 -1l10 -4t9 -4l-26 -57q0 -1 -1 -4t-1 -7q0 -5 4 -9q5 -3 10 -0.5
t7 5.5q1 1 9.5 10t20 21t22 24.5t15.5 18.5z" />
    <glyph glyph-name="droplet" unicode="&#x1f4a7;" horiz-adv-x="380" 
d="M195 486q8 -66 30 -110t45.5 -79t41.5 -68.5t18 -79.5q0 -29 -11 -54.5t-30.5 -44t-45 -29.5t-53.5 -11q-29 0 -54 11t-44.5 29.5t-30.5 44t-11 54.5q0 46 18 79.5t41 68.5t45.5 79t30.5 110q1 5 5.5 5t4.5 -5zM174 290q1 2 -1 7q-3 3 -7 3t-6 -3l-10 -14t-10 -15
q-17 -24 -33.5 -52.5t-16.5 -70.5q0 -12 8.5 -20.5t20.5 -8.5q11 0 20 7.5t9 26.5q0 35 6.5 65.5t14.5 57.5q2 5 2.5 9t2.5 8z" />
    <glyph glyph-name="cd" unicode="&#x1f4bf;" horiz-adv-x="560" 
d="M280 480q48 0 89.5 -18t73 -49.5t49.5 -73t18 -89.5t-18 -89.5t-49.5 -73t-73 -49.5t-89.5 -18t-89.5 18t-73 49.5t-49.5 73t-18 89.5t18 89.5t49.5 73t73 49.5t89.5 18zM280 175q32 0 53.5 22t21.5 53q0 32 -21.5 53.5t-53.5 21.5q-31 0 -53 -21.5t-22 -53.5
q0 -31 22 -53t53 -22z" />
    <glyph glyph-name="briefcase" unicode="&#x1f4bc;" 
d="M278 188h-228q1 33 2 61q1 24 1.5 48t1.5 37q1 25 11.5 39.5t38.5 14.5h80q10 17 18.5 34t11.5 22q7 12 11.5 15.5t18.5 3.5h111q14 0 18.5 -3.5t10.5 -15.5q3 -5 12 -22l18 -34h80q28 0 38.5 -14.5t11.5 -39.5q0 -14 1 -38l2 -48q1 -28 2 -60h-227v50h-45v-50zM241 415
q-2 -3 -5.5 -10.5t-8.5 -16.5h146q-5 9 -8.5 16.5t-5.5 10.5q-5 8 -8 10.5t-13 2.5h-76q-10 0 -13 -2.5t-8 -10.5zM323 163h215q-1 -13 -2 -27q-1 -12 -1.5 -27t-1.5 -29q0 -6 -2 -13.5t-6.5 -13.5t-13 -10.5t-23.5 -4.5h-375q-15 0 -24 4.5t-13.5 10.5t-6 13.5t-1.5 13.5
q-1 14 -1.5 29t-1.5 27q-1 14 -2 27h215v-50h45v50z" />
    <glyph glyph-name="area-graph" unicode="&#x1f53e;" horiz-adv-x="590" 
d="M532 441q8 11 8 -2v-384h-482q-6 0 -7.5 3.5t2.5 8.5l115 144q4 5 9.5 5.5t10.5 -4.5l37 -33q5 -5 10.5 -4t8.5 6l79 119q3 5 8.5 6t10.5 -4l56 -52q10 -10 19 2l115 189v0z" />
    <glyph glyph-name="hourglass" unicode="&#x23f3;" horiz-adv-x="380" 
d="M330 386q0 -20 -15 -38.5t-33.5 -35.5t-33.5 -32.5t-15 -29.5t15 -29.5t33.5 -32t33.5 -35t15 -38.5v-59q0 -8 -11 -17.5t-30 -18t-44.5 -14.5t-54.5 -6t-54.5 6t-44.5 14.5t-30 18t-11 17.5v59q0 20 15 38.5t33.5 35t33.5 32t15 29.5t-15 29.5t-33.5 32.5t-33.5 35.5
t-15 38.5v59q0 7 11 16.5t30 18t44.5 14.5t54.5 6t54.5 -6t44.5 -14.5t30 -18t11 -16.5v-59zM89 442q-4 -2 -7 -5q-6 -6 0 -9q16 -9 44.5 -17.5t63.5 -8.5q36 0 65 8t45 17q7 5 0.5 9t-8.5 6q-14 7 -31 13q-14 5 -32 9.5t-38 4.5q-39 0 -64 -9.5t-38 -17.5zM203 250
q0 23 15.5 39t35.5 36l15 15t15 16t11.5 16t4.5 14l1 25q-20 -11 -49 -19t-62 -8t-62 8t-49 19l2 -25q0 -13 15.5 -30t29.5 -31l36 -36t16 -39q0 -22 -16 -38.5t-36 -35.5l-15 -15t-14.5 -16.5t-11 -16t-4.5 -13.5v-33q9 4 25 9t32 12t27.5 17t11.5 24q0 7 4 11t9 4t9 -4
t4 -11q0 -14 11.5 -24t27.5 -17t32.5 -12t25.5 -9v33q0 6 -4.5 13.5t-11.5 16t-15 16.5l-15 15q-20 19 -35.5 35.5t-15.5 38.5z" />
    <glyph glyph-name="gauge" unicode="&#x1f6c7;" 
d="M253 164q4 7 20.5 29.5t38 50.5t46 59t46 57t36 41.5t17.5 14.5q2 -1 -4.5 -22t-18 -52t-26 -67.5t-28.5 -70t-25 -58.5t-15 -32q-13 -23 -31.5 -26t-36.5 8t-25 28t6 40zM300 354q-42 0 -78.5 -17t-63.5 -46.5t-42.5 -69.5t-15.5 -86v-11.5t1 -11.5q1 -11 -5.5 -18.5
t-17.5 -8.5q-10 -1 -17.5 5.5t-9.5 17.5q0 7 -0.5 13.5t-0.5 13.5q0 57 19.5 106t53 85t79 57t98.5 21q35 0 67 -9l-18 -22t-17 -21q-8 1 -16 1.5t-16 0.5zM481 323q32 -36 50.5 -84t18.5 -104v-14t-1 -14q-1 -10 -8 -16.5t-17 -6.5h-2q-11 2 -17.5 9.5t-5.5 18.5q1 5 1 11
v12q0 38 -10.5 72t-29.5 62q5 12 10.5 26t10.5 28z" />
    <glyph glyph-name="language" unicode="&#x1f394;" horiz-adv-x="601" 
d="M544 228q15 -42 -4.5 -88.5t-67.5 -79.5q-1 0 -2.5 -0.5t-3.5 1.5t-8 9.5t-8 9.5q-1 3 1 5q22 15 37 35t22 41t5.5 40.5t-11.5 33.5q-6 -16 -18.5 -37.5t-30.5 -41t-42 -31.5t-54 -8q-26 3 -42 20t-16 47q0 42 30 74q9 9 23 18.5t34 14.5l-1 50q-19 -3 -35 -6
q-14 -2 -25.5 -4t-12.5 -2q-3 -1 -5 2q0 1 -1 5t-1.5 9.5t-1.5 10t-1 5.5q-1 2 0.5 2.5t3.5 0.5q1 0 13.5 2.5t26.5 4.5q17 3 38 7v28q0 11 -0.5 19.5t-0.5 9.5q0 4 4 4h13t13 1q5 0 5 -4v-52q22 2 40 5q15 2 27.5 4t14.5 2q4 2 5 -3q0 -2 2 -12t2 -12q2 -5 -2 -6
q-2 0 -15 -2.5t-30 -5.5q-19 -4 -43 -7v-51h6q44 0 74.5 -18t42.5 -50zM359 148q8 -2 16 -0.5t15 3.5l-2 107q-17 -6 -30 -20q-11 -11 -16.5 -25.5t-5.5 -28.5q0 -10 2.5 -22t20.5 -14zM420 162q11 10 22 25t19.5 29.5t12.5 26t1 13.5q-8 4 -20.5 6.5t-27.5 2.5
q-2 0 -3 -0.5t-3 -0.5zM196 353q3 -8 10.5 -31.5t17 -54t20 -64t19.5 -61.5t15 -46.5l6 -18.5q0 -2 -2 -2h-43q-3 0 -3 2q-2 6 -4 13q-4 11 -9 29t-12 41h-88q-7 -23 -12 -41q-2 -8 -4.5 -15.5l-4.5 -13.5q-3 -7 -4 -13q0 -2 -3 -2h-43q-2 0 -2 2l6 18.5t15 46.5t19.5 61.5
t20.5 64t17 54t10 31.5q1 4 5 4h48q5 0 5 -4zM203 195l-36 132l-36 -132h72z" />
    <glyph glyph-name="network" unicode="&#xe776;" horiz-adv-x="560" 
d="M162 327q-11 0 -21 -5q-14 14 -25 30.5t-21 33.5q13 17 29 32.5t35 26.5q20 -8 39.5 -18t36.5 -23q-3 -8 -3 -16q0 -3 0.5 -5.5t1.5 -5.5q-31 -24 -58 -52q-8 2 -14 2zM113 278q0 -17 10 -30q-14 -27 -24.5 -56t-15.5 -60q-33 53 -33 118q0 55 25 103q19 -31 42 -56
q-2 -5 -3 -9.5t-1 -9.5zM281 437q-14 0 -25 -7q-29 21 -57 35q19 7 39.5 11t41.5 4q32 0 60.5 -8.5t54.5 -22.5q-21 -4 -41 -10.5t-40 -14.5q-13 13 -33 13zM354 207q-80 12 -145 56q2 10 2 15q0 12 -7 26q11 12 23 23t26 22q13 -10 28 -10q5 0 9.5 1t9.5 3q47 -54 67 -120
q-8 -7 -13 -16zM418 141q19 7 27 30q29 2 54 9q-23 -73 -83 -116q3 24 3 49q0 7 -0.5 14t-0.5 14zM343 174q-48 -24 -86 -58.5t-66 -77.5q-45 18 -79 55q6 72 40 137q3 -1 10 -1q15 0 26 7q34 -23 73 -39t82 -23zM435 420q35 -32 55 -75.5t20 -94.5q0 -8 -0.5 -16.5
t-1.5 -16.5q-32 -9 -65 -12q-5 13 -17 21t-27 9q-24 73 -74 132q5 10 5 21v5q49 21 105 27zM367 148q6 -5 16 -9q1 -7 1 -13v-13q0 -40 -7 -72q-44 -21 -97 -21q-29 0 -56 6q55 80 143 122z" />
    <glyph glyph-name="key" unicode="&#x1f511;" horiz-adv-x="490" 
d="M437 381q5 -28 1.5 -55.5t-14.5 -50.5t-30 -39t-46 -21q-13 -2 -31.5 -2.5t-33.5 1.5l-59 -97l-35 -6l-52 -83q-3 -6 -10 -10.5t-13 -5.5l-38 -7q-6 -2 -11 2t-6 11l-8 49q-2 6 0 14.5t6 13.5l129 193q-7 14 -12 31t-7 29q-5 28 3 52t24.5 43t40.5 31.5t51 17.5t52 -1
t45.5 -21t34.5 -38t19 -51zM374 343q15 22 10.5 48.5t-25.5 41.5q-21 16 -46 11.5t-40 -27.5q-8 -11 -7.5 -19t6.5 -15t15 -13.5t20 -14.5q10 -8 19.5 -14.5t17.5 -9.5t15.5 -1t14.5 13z" />
    <glyph glyph-name="battery" unicode="&#x1f50b;" 
d="M435 250q0 -53 19 -80.5t38 -27.5h33q-6 -10 -12.5 -18t-16.5 -13t-24.5 -8t-37.5 -3h-250q-35 0 -60.5 14.5t-42 36.5t-24 48.5t-7.5 50.5t7.5 50t24 48.5t42 37t60.5 14.5h250q23 0 37.5 -3t24.5 -8.5t16.5 -13t12.5 -17.5h-33q-19 0 -38 -28t-19 -80zM367 205q3 4 0 9
l-4 4q-19 18 -37 35q-15 14 -29.5 27.5t-22.5 19.5q-17 11 -22 4.5t-9 -15.5q-2 -5 -3.5 -9t-3.5 -9l-4 -10l-74 33q-3 1 -7 2q-7 2 -10 -2q-3 -6 0 -10q1 -3 4 -4q19 -19 37 -35q15 -14 30 -27.5t23 -18.5q16 -11 21 -5t9 15q2 5 4 9.5t4 9.5l4 10l73 -34q3 -1 7 -2
q8 -2 10 3zM522 301q11 0 19.5 -13t8.5 -36t-8.5 -36.5t-19.5 -13.5h-19q-11 0 -19 13.5t-8 36.5t8 36t19 13h19z" />
    <glyph glyph-name="bucket" unicode="&#x1f4fe;" horiz-adv-x="558" 
d="M312 465q46 0 83 -7.5t62.5 -18.5t38.5 -24.5t11 -26.5q-1 -9 -5 -33t-9 -55.5t-10.5 -66t-10 -64.5t-8 -51t-3.5 -24q-1 -6 -11.5 -15.5t-30 -19.5t-46.5 -17t-61 -7q-33 0 -60 7t-46.5 17t-30 19.5t-11.5 15.5q-1 3 -1 6t-1 9q42 -3 82 17.5t69 58.5q14 0 24 10t10 25
q0 14 -10 24.5t-25 10.5q-14 0 -24.5 -10.5t-10.5 -24.5q0 -10 5 -18q-24 -29 -57.5 -44.5t-65.5 -13.5q-54 5 -80 30t-28 53q-2 23 15 49t63 43q-5 25 -7.5 43.5t-3.5 25.5q-2 13 11 26.5t38.5 24.5t62 18.5t82.5 7.5zM86 230q2 -15 18 -29t46 -20q-4 24 -8 50.5t-8 51.5
q-28 -12 -38.5 -26.5t-9.5 -26.5zM312 336q34 0 62 5.5t48.5 13t32 15t11.5 12.5t-11.5 12.5t-32 15t-48.5 13t-62 5.5q-33 0 -61.5 -5.5t-48.5 -13t-31.5 -15t-11.5 -12.5t11.5 -12.5t31.5 -15t48.5 -13t61.5 -5.5z" />
    <glyph glyph-name="magnet" unicode="&#xe7a1;" horiz-adv-x="510" 
d="M317 135l130 -10l-8 -83q-1 -5 -5.5 -9t-10.5 -3l-100 8q-6 0 -10 4.5t-4 10.5zM193 135l8 -82q1 -6 -3 -10.5t-11 -4.5l-99 -8q-6 -1 -11 3t-5 9l-8 83zM51 260q-1 5 -1 8.5v8.5q0 40 16 75t44 61t65.5 41.5t79.5 15.5t79.5 -15.5t65.5 -41.5t44 -61t16 -75v-8.5
t-1 -8.5l-8 -85l-129 11l8 85v6q0 29 -21.5 49.5t-53.5 20.5q-31 0 -53 -20.5t-22 -49.5v-6l8 -85l-129 -11z" />
    <glyph glyph-name="drive" unicode="&#x1f4fd;" horiz-adv-x="551" 
d="M492 227q5 -9 7 -23t0 -25l-17 -92q-2 -11 -10 -18t-19 -7h-356q-10 0 -18.5 7t-10.5 18l-17 92q-2 11 0 25t7 23l79 187q5 10 15.5 16.5t20.5 6.5h204q11 0 21.5 -6.5t15.5 -16.5zM458 161q2 11 -4.5 19t-17.5 8h-322q-11 0 -17.5 -8t-4.5 -19l7 -37q2 -11 10 -18.5
t19 -7.5h295q11 0 19 7.5t10 18.5z" />
    <glyph glyph-name="cup" unicode="&#x2615;" horiz-adv-x="442" 
d="M221 455q40 0 72 -6t54.5 -15.5t33.5 -21t10 -21.5l-36 -297q0 -5 -10 -13t-28 -16t-42.5 -14t-53.5 -6t-53.5 6t-42 14t-27.5 16t-11 13l-36 297q-1 10 10.5 21.5t33.5 21t54 15.5t72 6zM221 347q29 0 53.5 4.5t42.5 11t28 13t10 10.5t-10 10.5t-28 12.5t-42.5 10.5
t-53.5 4.5t-53.5 -4.5t-42.5 -10.5t-28 -12.5t-10 -10.5t10 -10.5t28 -13t42.5 -11t53.5 -4.5z" />
    <glyph glyph-name="rocket" unicode="&#x1f680;" horiz-adv-x="531" 
d="M322 193q4 -41 1.5 -63t-16 -35.5t-40 -24.5t-69.5 -30q-17 -7 -23 1.5t-1 22.5q2 6 5.5 15.5t6.5 18.5q4 11 8 21l-65 66q-11 -4 -21 -8q-8 -3 -17 -6.5t-15 -5.5q-13 -5 -21.5 1t-1.5 23q18 44 28.5 71t24 41t34.5 16.5t62 -2.5q37 50 80 88q18 16 39.5 31t45.5 25.5
t49.5 15.5t52.5 1q4 0 7 -3q2 -2 3 -7q3 -27 -1.5 -53.5t-15 -50.5t-24.5 -46t-30 -41q-37 -44 -86 -82zM347 341q11 -11 27 -11t27 11q11 12 11 28t-11 28q-11 11 -27 11t-27 -11q-11 -12 -11 -28t11 -28z" />
    <glyph glyph-name="brush" unicode="&#xe79a;" horiz-adv-x="581" 
d="M109 160q19 18 42.5 15t43.5 -23t23.5 -43.5t-14.5 -41.5q-21 -21 -50.5 -33t-55 -16.5t-40 -1.5t-5.5 12q19 21 24.5 39.5t8 34t6 30t17.5 28.5zM529 483q5 -5 -5 -24t-29 -46.5t-44.5 -59.5t-51.5 -63t-50 -57.5t-40 -42.5q-24 -24 -38 -34t-24 -18q-4 -3 -5.5 -0.5
t-2.5 4.5q-5 10 -10.5 17t-13.5 15q-16 16 -33 24q-2 1 -4.5 2.5t0.5 5.5q8 10 18 24t34 37q16 16 43 39.5t58.5 49t64.5 50.5t61 43.5t47.5 28.5t24.5 5z" />
    <glyph glyph-name="suitcase" unicode="&#x1f6c6;" 
d="M500 400q21 0 35.5 -15t14.5 -35v-275q0 -21 -14.5 -35.5t-35.5 -14.5h-25v375h25zM50 350q0 20 15 35t35 15h25v-375h-25q-20 0 -35 14.5t-15 35.5v275zM385 400h55v-375h-280v375h55v52q13 6 33.5 14.5t51.5 8.5t51.5 -8.5t33.5 -14.5v-52zM355 433q-10 5 -24 8.5
t-31 3.5t-30.5 -3.5t-24.5 -8.5v-33h110v33z" />
    <glyph glyph-name="traffic-cone" unicode="&#x1f6c8;" horiz-adv-x="582" 
d="M291 198q-45 0 -78 13t-35 33q7 19 14 39l14 40q5 -14 29.5 -23t55.5 -9q32 0 56 9t29 23l14 -40t14 -39q-2 -20 -35 -33t-78 -13zM291 365q-21 0 -38.5 6t-23.5 16q8 23 14.5 41t11.5 30q2 8 13.5 12.5t22.5 4.5q12 0 23 -4.5t14 -12.5q4 -12 10.5 -30t14.5 -41
q-6 -10 -23.5 -16t-38.5 -6zM511 173q20 -8 20.5 -20.5t-18.5 -23.5l-176 -94q-19 -11 -45.5 -11t-45.5 11l-177 94q-19 11 -18 23.5t21 20.5l94 38l-11 -30q0 -12 11 -22.5t29.5 -18.5t43 -12.5t52.5 -4.5t52.5 4.5t43.5 12.5t30 18.5t11 22.5l-11 30z" />
    <glyph glyph-name="globe" unicode="&#x1f30e;" horiz-adv-x="580" 
d="M290 490q50 0 93.5 -19t76 -51.5t51.5 -76.5t19 -93q0 -50 -19 -93.5t-51.5 -76t-76 -51.5t-93.5 -19t-93.5 19t-76 51.5t-51.5 76t-19 93.5q0 49 19 93t51.5 76.5t76 51.5t93.5 19zM495 250q0 34 -10.5 64.5t-29 56t-44.5 44t-56 29.5q-9 -12 -8 -16q2 -21 9 -25.5
t15 -3t15.5 5.5t10.5 1q10 -11 4 -19t-15.5 -17.5t-15.5 -22t4 -31.5t21 -25.5t27 -6.5q8 0 13.5 -6t9 -14.5t5.5 -17t2 -13.5q1 -6 1 -15t-1 -19t-2.5 -20t-4.5 -16q-6 -12 -2 -22.5t9 -15.5q20 26 31.5 58t11.5 67zM262 452q-57 -8 -100 -43t-63 -86q6 -1 14.5 -1.5t17 -2
t15.5 -4t9 -7.5t-0.5 -10t-6 -11t-6.5 -14t-3 -18q0 -11 6 -17t13 -11t13 -10t6 -13q0 -17 4 -34t4 -22q0 -3 5 -10.5t12.5 -16t14.5 -15t12 -6.5q4 0 5 7t0.5 17t-1.5 19.5t-1 14.5q0 3 1 8t2 11t2 11t2 7q4 14 12 21.5t17 13t17 10t11 13.5q10 27 2 42.5t-23 23.5
t-30.5 10.5t-19.5 4.5q-8 3 -20.5 3.5t-18.5 -1.5q-5 -2 -13.5 5t-8.5 15q0 4 4.5 10t11 12.5l13 13t10.5 11.5q7 11 13.5 14t19.5 15q6 5 14 9t12 11zM226 55q15 -5 31 -7.5t33 -2.5q64 0 113 34q-7 12 -26.5 15.5t-32.5 1.5q-15 -2 -30.5 -8.5t-25.5 -8.5q-11 -2 -19.5 -5
t-18.5 -3q-8 -1 -11.5 -6t-12.5 -10z" />
    <glyph glyph-name="keyboard" unicode="&#x2328;" 
d="M515 400q14 0 24.5 -10.5t10.5 -24.5v-230q0 -15 -10.5 -25t-24.5 -10h-430q-14 0 -24.5 10t-10.5 25v230q0 14 10.5 24.5t24.5 10.5h430zM325 300h50v50h-50v-50zM350 275v-50h50v50h-50zM250 300h50v50h-50v-50zM275 275v-50h50v50h-50zM175 300h50v50h-50v-50z
M200 275v-50h50v50h-50zM100 300h50v50h-50v-50zM125 275v-50h50v50h-50zM150 200h-50v-50h50v50zM425 200h-250v-50h250v50zM500 200h-50v-50h50v50zM475 225v50h-50v-50h50zM500 350h-100v-50h100v50z" />
    <glyph glyph-name="browser" unicode="&#xe74e;" 
d="M500 450q21 0 35.5 -15t14.5 -35v-300q0 -21 -14.5 -35.5t-35.5 -14.5h-400q-20 0 -35 14.5t-15 35.5v300q0 20 15 35t35 15h400zM165 403q-8 0 -13.5 -5t-5.5 -13t5.5 -13.5t13.5 -5.5q19 0 19 19q0 8 -5.5 13t-13.5 5zM96 385q0 -8 5.5 -13.5t13.5 -5.5q19 0 19 19
q0 8 -5.5 13t-13.5 5t-13.5 -5t-5.5 -13zM501 330h-401v-230h401v230zM501 400h-301v-30h301v30z" />
    <glyph glyph-name="publish" unicode="&#xe74d;" 
d="M500 475q21 0 35.5 -15t14.5 -35v-300q0 -21 -14.5 -35.5t-35.5 -14.5h-99v49h100v231h-401v-231h100v-49h-100q-20 0 -35 14.5t-15 35.5v300q0 20 15 35t35 15h400zM115 391q19 0 19 19q0 8 -5.5 13t-13.5 5t-13.5 -5t-5.5 -13t5.5 -13.5t13.5 -5.5zM165 391q19 0 19 19
q0 8 -5.5 13t-13.5 5t-13.5 -5t-5.5 -13t5.5 -13.5t13.5 -5.5zM501 425h-301v-31h301v31zM420 175h-75v-150h-92v150h-75l121 120z" />
    <glyph glyph-name="progress-3" unicode="&#xe76b;" 
d="M550 175q0 -21 -14.5 -35.5t-35.5 -14.5h-400q-20 0 -35 14.5t-15 35.5v150q0 20 15 35t35 15h400q21 0 35.5 -15t14.5 -35v-25v-125zM500 325h-400v-150h400v150zM125 299h100v-99h-100v99zM250 299h100v-99h-100v99zM475 299v-99h-100v99h100z" />
    <glyph glyph-name="progress-2" unicode="&#xe76a;" 
d="M550 175q0 -21 -14.5 -35.5t-35.5 -14.5h-400q-20 0 -35 14.5t-15 35.5v150q0 20 15 35t35 15h400q21 0 35.5 -15t14.5 -35v-25v-125zM500 325h-400v-150h400v150zM125 299h100v-99h-100v99zM250 299h100v-99h-100v99z" />
    <glyph glyph-name="progress-1" unicode="&#xe769;" 
d="M550 175q0 -21 -14.5 -35.5t-35.5 -14.5h-400q-20 0 -35 14.5t-15 35.5v150q0 20 15 35t35 15h400q21 0 35.5 -15t14.5 -35v-25v-125zM500 325h-400v-150h400v150zM125 299h100v-99h-100v99z" />
    <glyph glyph-name="progress-0" unicode="&#xe768;" 
d="M550 175q0 -21 -14.5 -35.5t-35.5 -14.5h-400q-20 0 -35 14.5t-15 35.5v150q0 20 15 35t35 15h400q21 0 35.5 -15t14.5 -35v-25v-125zM500 325h-400v-150h400v150z" />
    <glyph glyph-name="light-down" unicode="&#x1f505;" horiz-adv-x="450" 
d="M225 330q34 0 57 -23.5t23 -56.5q0 -34 -23 -57t-57 -23q-33 0 -56.5 23t-23.5 57q0 33 23.5 56.5t56.5 23.5zM225 198q22 0 36.5 15t14.5 37q0 21 -14.5 36t-36.5 15q-21 0 -36 -15t-15 -36q0 -22 15 -37t36 -15zM75 270q11 0 18 -6t7 -14q0 -9 -7 -14.5t-18 -5.5
t-18 5.5t-7 14.5q0 8 7 14t18 6zM348 372q6 -6 5 -15t-9 -17q-7 -7 -16.5 -8t-14.5 5q-6 6 -5.5 15t8.5 17q8 7 17 8t15 -5zM375 270q11 0 18 -6t7 -14q0 -9 -7 -14.5t-18 -5.5t-17.5 5.5t-6.5 14.5q0 8 6.5 14t17.5 6zM225 125q8 0 14 -7.5t6 -17.5q0 -11 -6 -18t-14 -7
t-14 7t-6 18q0 10 6 17.5t14 7.5zM106 156q8 8 17 9t15 -5t5 -15t-9 -17q-7 -8 -16.5 -8.5t-14.5 4.5q-6 6 -5.5 15t8.5 17zM101 371q6 6 15 5t17 -9q8 -7 8.5 -16.5t-4.5 -14.5q-6 -6 -15 -5.5t-17 8.5t-9 17t5 15zM317 129q-7 8 -8 17t5 15t15 5t17 -9q7 -7 8 -16.5
t-5 -14.5q-6 -6 -15 -5.5t-17 8.5zM225 375q-8 0 -14 7t-6 18q0 10 6 17.5t14 7.5t14 -7.5t6 -17.5q0 -11 -6 -18t-14 -7z" />
    <glyph glyph-name="light-up" unicode="&#x1f506;" 
d="M525 270q11 0 18 -6t7 -14q0 -9 -7 -14.5t-18 -5.5h-24q-11 0 -18 5.5t-7 14.5q0 8 7 14t18 6h24zM300 387q28 0 53.5 -10.5t44 -29.5t29.5 -44t11 -53q0 -29 -11 -54t-29.5 -44t-44 -29.5t-53.5 -10.5q-29 0 -53.5 10.5t-43.5 29.5t-29.5 44t-10.5 54q0 28 10.5 53
t29.5 44t43.5 29.5t53.5 10.5zM300 150q21 0 39 7.5t31.5 21t21.5 32t8 39.5q0 42 -29 71t-71 29t-71 -29t-29 -71q0 -21 8 -39.5t21.5 -32t31.5 -21t39 -7.5zM125 250q0 -9 -7 -14.5t-18 -5.5h-25q-11 0 -18 5.5t-7 14.5q0 8 7 14t18 6h25q11 0 18 -6t7 -14zM300 425
q-8 0 -14 7t-6 18v25q0 10 6 17.5t14 7.5t14 -7.5t6 -17.5v-25q0 -11 -6 -18t-14 -7zM300 75q8 0 14 -7.5t6 -17.5v-25q0 -11 -6 -18t-14 -7t-14 7t-6 18v25q0 10 6 17.5t14 7.5zM467 388q-8 -8 -17 -8.5t-15 4.5q-6 6 -5 15t9 17q2 2 8.5 9t8.5 9q8 7 17 8t15 -5t5 -15
t-9 -17zM134 111q7 8 16.5 9t14.5 -5q6 -6 5.5 -15t-8.5 -17l-18 -18q-7 -7 -16.5 -8t-14.5 5q-6 6 -5.5 15t8.5 17q2 2 9 8.5t9 8.5zM162 416q8 -8 8.5 -17t-5.5 -15q-5 -5 -14.5 -4.5t-16.5 8.5q-2 2 -9 8.5t-9 8.5q-8 8 -8.5 17t5.5 15q5 6 14.5 5t16.5 -8zM439 83
q-8 8 -9 17t5 15t15 5t17 -9l17 -17q8 -8 9 -17t-5 -15t-15 -5t-17 8q-2 2 -8.5 9t-8.5 9z" />
    <glyph glyph-name="adjust" unicode="&#x25d1;" 
d="M525 270q11 0 18 -6t7 -14q0 -9 -7 -14.5t-18 -5.5h-24q-11 0 -18 5.5t-7 14.5q0 8 7 14t18 6h24zM300 387q28 0 53.5 -10.5t44 -29.5t29.5 -44t11 -53q0 -29 -11 -54t-29.5 -44t-44 -29.5t-53.5 -10.5q-29 0 -53.5 10.5t-43.5 29.5t-29.5 44t-10.5 54q0 28 10.5 53
t29.5 44t43.5 29.5t53.5 10.5zM303 350q-22 0 -40.5 -8t-32.5 -21.5t-22 -31.5t-8 -39t8 -39.5t22 -32t32.5 -21t40.5 -7.5v200zM125 250q0 -9 -7 -14.5t-18 -5.5h-25q-11 0 -18 5.5t-7 14.5q0 8 7 14t18 6h25q11 0 18 -6t7 -14zM300 425q-8 0 -14 7t-6 18v25q0 10 6 17.5
t14 7.5t14 -7.5t6 -17.5v-25q0 -11 -6 -18t-14 -7zM300 75q8 0 14 -7.5t6 -17.5v-25q0 -11 -6 -18t-14 -7t-14 7t-6 18v25q0 10 6 17.5t14 7.5zM467 388q-8 -8 -17 -8.5t-15 4.5q-6 6 -5 15t9 17q2 2 8.5 9t8.5 9q8 7 17 8t15 -5t5 -15t-9 -17zM134 111q7 8 16.5 9t14.5 -5
q6 -6 5.5 -15t-8.5 -17l-18 -18q-7 -7 -16.5 -8t-14.5 5q-6 6 -5.5 15t8.5 17q2 2 9 8.5t9 8.5zM162 416q8 -8 8.5 -17t-5.5 -15q-5 -5 -14.5 -4.5t-16.5 8.5q-2 2 -9 8.5t-9 8.5q-8 8 -8.5 17t5.5 15q5 6 14.5 5t16.5 -8zM439 83q-8 8 -9 17t5 15t15 5t17 -9l17 -17
q8 -8 9 -17t-5 -15t-15 -5t-17 8q-2 2 -8.5 9t-8.5 9z" />
    <glyph glyph-name="code" unicode="&#xe714;" 
d="M240 393q8 -7 8 -16t-8 -15l-123 -112l123 -113q8 -6 8 -15t-8 -16q-15 -15 -30 0l-160 144l160 143q15 15 30 0zM550 250l-159 -144q-16 -15 -31 0q-7 7 -7 16t7 15l124 113l-124 112q-7 6 -7 15t7 16q15 15 31 0z" />
    <glyph glyph-name="monitor" unicode="&#x1f4bb;" 
d="M500 470q21 0 35.5 -15t14.5 -35v-275q0 -21 -14.5 -38.5t-34.5 -21.5l-109 -22q25 -10 39 -17q12 -6 14.5 -11t-20.5 -5h-250q-23 0 -20.5 5t14.5 11q14 7 40 17l-110 22q-20 4 -34.5 21.5t-14.5 38.5v275q0 20 15 35t35 15h400zM500 425h-400v-278h400v278z" />
    <glyph glyph-name="mute" unicode="&#x1f507;" horiz-adv-x="542" 
d="M484 464q8 -8 8 -18t-8 -18l-391 -391q-9 -7 -17 -7q-9 0 -18 7q-8 8 -8 18t8 18l391 391q8 7 17.5 7t17.5 -7zM401 296q18 -23 31 -45t19.5 -41t6 -34t-9.5 -24q-6 -6 -21 -17.5t-36 -23.5t-46 -23t-52.5 -17.5t-56 -6t-54.5 12.5l139 138q35 -26 62 -35t32 -4t-4 32.5
t-35 62.5zM103 167q-12 38 -4 78.5t23.5 75.5t33.5 60.5t27 34.5q17 17 53 6t79 -43l-26 -25q-31 20 -53.5 27t-27.5 2q-5 -4 2 -27t28 -54z" />
    <glyph glyph-name="light-bulb" unicode="&#x1f4a1;" horiz-adv-x="451" 
d="M155 72h141v-52q-15 -9 -32.5 -15t-38.5 -5q-21 -1 -38 5t-32 15v52zM158 102q0 41 -18 70t-39 56t-37 56t-13 70q2 26 12 52t31 47t53 34t78 13t78.5 -13t53 -34t31 -47t12.5 -52q2 -27 -5 -48.5t-19 -40.5t-26.5 -36.5t-27 -36.5t-21 -41t-8.5 -49h-135zM104 350
q-2 -26 11 -47.5t34 -50.5q15 -21 31 -47t25 -59h41q8 33 24 59t32 47q20 29 33.5 50.5t11.5 47.5q-4 49 -36 73.5t-86 24.5t-85.5 -24.5t-35.5 -73.5z" />
    <glyph glyph-name="credit-card" unicode="&#x1f4b3;" 
d="M500 425q21 0 35.5 -15t14.5 -35v-250q0 -21 -14.5 -35.5t-35.5 -14.5h-400q-20 0 -35 14.5t-15 35.5v250q0 20 15 35t35 15h400zM500 275h-400v-150h400v150zM500 375h-400v-25h400v25zM165 222v-15h-15v15h15zM255 192v15h15v15h30v-15h-15v-15h-15v-15h-30v15h15z
M285 177v15h15v-15h-15zM195 177v15h30v-15h-30zM240 192h-15v30h30v-15h-15v-15zM180 177h-30v15h15v15h15v15h30v-15h-15v-15h-15v-15z" />
    <glyph glyph-name="database" unicode="&#x1f4f8;" horiz-adv-x="450" 
d="M393 179q4 5 5.5 3.5t1.5 -4.5v-50q0 -18 -13.5 -35.5t-37.5 -31.5t-56 -22.5t-68 -8.5t-68 8.5t-55.5 22.5t-37.5 31.5t-14 35.5v50q0 3 2 4.5t5 -3.5q16 -26 62 -43t106 -17t106 17t62 43zM394 306q3 5 4.5 3.5t1.5 -3.5v-58q0 -17 -13.5 -31.5t-37.5 -25.5t-56 -17
t-68 -6t-68 6t-55.5 17t-37.5 25.5t-14 31.5v58q0 2 1.5 3.5t5.5 -3.5q15 -23 61.5 -37.5t106.5 -14.5t106.5 14.5t62.5 37.5zM225 470q36 0 68 -5.5t56 -14.5t37.5 -21t13.5 -25v-32q0 -14 -13.5 -27t-37.5 -22.5t-56 -15t-68 -5.5t-68 5.5t-55.5 15t-37.5 22.5t-14 27v32
q0 13 14 25t37.5 21t55.5 14.5t68 5.5z" />
    <glyph glyph-name="clipboard" unicode="&#x1f4cb;" horiz-adv-x="450" 
d="M365 450q14 0 24.5 -10.5t10.5 -24.5v-380q0 -15 -10.5 -25t-24.5 -10h-280q-14 0 -24.5 10t-10.5 25v380q0 14 10.5 24.5t24.5 10.5l30 -75h220zM135 400l-22 50h54l18 50h80l18 -50h55l-23 -50h-180z" />
    <glyph glyph-name="cart" unicode="&#xe73d;" horiz-adv-x="550" 
d="M125 75q0 20 15 35t35 15q21 0 35.5 -15t14.5 -35q0 -21 -14.5 -35.5t-35.5 -14.5q-20 0 -35 14.5t-15 35.5zM375 75q0 20 15 35t35 15q21 0 35.5 -15t14.5 -35q0 -21 -14.5 -35.5t-35.5 -14.5q-20 0 -35 14.5t-15 35.5zM214 193q-18 -5 -17.5 -11.5t22.5 -6.5h281v-38
q0 -10 -10 -10h-65h-250h-12q-10 0 -10 10v38l-5 23l-49 227h-49v40q0 10 10 10h78q10 0 10 -10v-43h352v-137q0 -11 -9 -13z" />
    <glyph glyph-name="box" unicode="&#x1f4e6;" horiz-adv-x="550" 
d="M485 450q6 0 10.5 -4.5t4.5 -10.5v-60h-450v60q0 6 4.5 10.5t10.5 4.5h420zM75 350h400v-265q0 -15 -10.5 -25t-24.5 -10h-330q-14 0 -24.5 10t-10.5 25v265zM200 250h150v50h-150v-50z" />
    <glyph glyph-name="ticket" unicode="&#x1f3ab;" horiz-adv-x="571" 
d="M321 374l89 -89l-163 -163l-89 89zM513 333q8 -8 8 -18t-8 -18l-275 -275q-8 -8 -18 -8t-18 8l-38 38q6 10 6 24q0 21 -14.5 36t-35.5 15q-11 0 -25 -7l-37 38q-8 8 -8 18t8 18l275 275q8 8 18 8t18 -8l37 -38q-6 -11 -6 -24q0 -21 15 -35.5t36 -14.5q13 0 24 6zM450 285
l-129 129l-204 -203l130 -129z" />
    <glyph glyph-name="rss" unicode="&#xe73a;" horiz-adv-x="480" 
d="M50 440q79 0 148 -30t120.5 -81.5t81.5 -121t30 -147.5h-59q0 66 -25.5 124.5t-69 102t-102 68.5t-124.5 25v60zM50 321q54 0 102 -20.5t83.5 -56t56 -83t20.5 -101.5h-59q0 42 -16 78.5t-43.5 64t-64.5 43.5t-79 16v59zM107 173q23 0 40 -16.5t17 -40.5q0 -23 -17 -39.5
t-40 -16.5t-40 16.5t-17 39.5q0 24 17 40.5t40 16.5z" />
    <glyph glyph-name="signal" unicode="&#x1f4f6;" horiz-adv-x="590" 
d="M295 150q21 0 35.5 -15t14.5 -35q0 -21 -14.5 -35.5t-35.5 -14.5q-20 0 -34.5 14.5t-14.5 35.5q0 20 14.5 35t34.5 15zM190 206q22 22 49 32.5t55.5 10.5t56 -10.5t49.5 -32.5l-35 -36q-14 15 -32.5 22t-37.5 7t-37 -7t-33 -22zM120 276q36 37 82 55t93.5 18t93 -18
t81.5 -55l-35 -35q-29 29 -65.5 43.5t-74.5 14.5t-74.5 -14.5t-65.5 -43.5zM50 347q51 51 115 77t130.5 26t130 -26t114.5 -77l-35 -35q-44 44 -98.5 66t-111.5 22t-112 -22t-98 -66z" />
    <glyph glyph-name="thermometer" unicode="&#x1f4ff;" horiz-adv-x="370" 
d="M250 253q32 -17 51 -48.5t19 -69.5q0 -28 -10.5 -52.5t-29 -43t-43 -29t-52.5 -10.5t-52.5 10.5t-43 29t-29 43t-10.5 52.5q0 38 19 69.5t51 48.5v222q0 10 4.5 17.5t15.5 7.5h85q11 0 18 -7.5t7 -17.5v-222zM185 50q35 0 60 25t25 60q0 28 -16 50t-42 30v185h-50v-184
q-27 -8 -44.5 -30t-17.5 -51q0 -35 25 -60t60 -25z" />
    <glyph glyph-name="water" unicode="&#x1f4a6;" horiz-adv-x="570" 
d="M134 497q5 -39 17.5 -64t26 -45.5t24 -39.5t10.5 -46q0 -34 -24 -57t-57 -23t-57 23t-24 57q0 27 10.5 46t24 39.5t26 45.5t17.5 64q1 2 3.5 2t2.5 -2zM442 497q5 -39 17.5 -64t26 -45.5t24 -39.5t10.5 -46q0 -34 -24 -57t-57 -23t-57 23t-24 57q0 27 10.5 46t24 39.5
t26 45.5t17.5 64q1 2 3.5 2t2.5 -2zM282 275q1 2 3.5 2t2.5 -2q5 -39 17.5 -64t26 -45.5t24 -39.5t10.5 -46q0 -34 -24 -57t-57 -23t-57 23t-24 57q0 27 10.5 46t24 39.5t26 45.5t17.5 64z" />
    <glyph glyph-name="sweden" unicode="&#xf601;" horiz-adv-x="550" 
d="M475 400q11 0 18 -7.5t7 -17.5v-100h-250v125h225zM50 225h150v-125h-130q-11 0 -15.5 7t-4.5 18v100zM250 225h250v-100q0 -11 -7 -18t-18 -7h-225v125zM50 375q0 10 4.5 17.5t15.5 7.5h130v-125h-150v100z" />
    <glyph glyph-name="voicemail" unicode="&#x2707;" 
d="M435 365q24 0 45 -9t36.5 -24.5t24.5 -36.5t9 -45t-9 -44.5t-24.5 -36.5t-36.5 -25t-45 -9h-270q-24 0 -44.5 9t-36.5 25t-25 36.5t-9 44.5t9 45t25 36.5t36.5 24.5t44.5 9t45 -9t36.5 -24.5t24.5 -36.5t9 -45q0 -36 -20 -65h80q-9 14 -14.5 30.5t-5.5 34.5q0 24 9 45
t25 36.5t36.5 24.5t44.5 9zM100 250q0 -26 19 -45.5t46 -19.5t46 19.5t19 45.5q0 27 -19 46t-46 19t-46 -19t-19 -46zM435 185q27 0 46 19.5t19 45.5q0 27 -19 46t-46 19t-46 -19t-19 -46q0 -26 19 -45.5t46 -19.5z" />
    <glyph glyph-name="lock" unicode="&#x1f512;" horiz-adv-x="450" 
d="M370 313q11 0 20.5 -9.5t9.5 -20.5v-195q0 -11 -7 -20t-17 -13l-30 -9q-10 -4 -24 -6t-24 -2h-145q-11 0 -25 2t-24 6l-30 9q-10 4 -17 13t-7 20v195q0 11 7 20.5t18 9.5h50v35q0 54 25 84.5t75 30.5q51 0 75.5 -30.5t24.5 -84.5v-35h45zM175 313h100v45q0 27 -13.5 41
t-36.5 14t-36.5 -14t-13.5 -41v-45z" />
    <glyph glyph-name="lock-open" unicode="&#x1f513;" horiz-adv-x="450" 
d="M370 300q11 0 20.5 -9.5t9.5 -20.5v-195q0 -10 -7 -19.5t-17 -12.5l-30 -10q-10 -3 -24 -5.5t-24 -2.5h-145q-11 0 -25 2.5t-24 5.5l-30 10q-10 3 -17 12.5t-7 19.5v195q0 11 7 20.5t18 9.5h200v70q0 28 -13.5 41.5t-36.5 13.5t-36.5 -13.5t-13.5 -41.5v-20h-50v10
q0 55 25 85t75 30q51 0 75.5 -30t24.5 -85v-60h45v0z" />
    <glyph glyph-name="logout" unicode="&#xe741;" horiz-adv-x="550" 
d="M301 125h49v-50q0 -20 -14.5 -35t-35.5 -15h-200q-20 0 -35 15t-15 35v350q0 21 15 35.5t35 14.5h200q21 0 35.5 -14.5t14.5 -35.5v-75h-49v75h-201v-350h201v50zM401 140v60h-225v75h225v60l99 -97z" />
    <glyph glyph-name="login" unicode="&#xe740;" horiz-adv-x="550" 
d="M450 475q21 0 35.5 -14.5t14.5 -35.5v-350q0 -20 -14.5 -35t-35.5 -15h-225q-20 0 -34.5 15t-14.5 35v50h49v-50h225v350h-225v-75h-49v75q0 21 14.5 35.5t34.5 14.5h225zM275 200h-225v75h225v60l100 -97l-100 -98v60z" />
    <glyph glyph-name="check" unicode="&#x2713;" horiz-adv-x="435" 
d="M175 75q-18 0 -28 14l-90 118q-8 12 -6 26t13 23t25.5 7t23.5 -14l59 -77l148 237q8 12 21.5 15.5t26.5 -4.5q12 -8 15.5 -21.5t-4.5 -26.5l-175 -280q-10 -16 -28 -16z" />
    <glyph glyph-name="cross" unicode="&#x274c;" horiz-adv-x="336" 
d="M277 172q9 -9 9 -21.5t-9 -21.5q-9 -8 -21.5 -8t-21.5 8l-66 76l-66 -76q-9 -8 -21.5 -8t-21.5 8q-8 9 -8 21.5t8 21.5l69 78l-69 79q-8 9 -8 21.5t8 21.5q9 8 21.5 8t21.5 -8l66 -76l66 76q9 8 21.5 8t21.5 -8q9 -9 9 -21.5t-9 -21.5l-69 -79l69 -78v0z" />
    <glyph glyph-name="circled-minus" unicode="&#x2296;" horiz-adv-x="520" 
d="M260 460q43 0 81.5 -16.5t67 -45t45 -67t16.5 -81.5q0 -44 -16.5 -82t-45 -66.5t-67 -45t-81.5 -16.5q-44 0 -82 16.5t-66.5 45t-45 66.5t-16.5 82q0 43 16.5 81.5t45 67t66.5 45t82 16.5zM134 276v-51h252v51h-252z" />
    <glyph glyph-name="circled-plus" unicode="&#x2295;" horiz-adv-x="520" 
d="M260 460q43 0 81.5 -16.5t67 -45t45 -67t16.5 -81.5q0 -44 -16.5 -82t-45 -66.5t-67 -45t-81.5 -16.5q-44 0 -82 16.5t-66.5 45t-45 66.5t-16.5 82q0 43 16.5 81.5t45 67t66.5 45t82 16.5zM386 225v51h-100v101h-51v-101h-101v-51h101v-101h51v101h100z" />
    <glyph glyph-name="minus" unicode="&#x2796;" horiz-adv-x="390" 
d="M325 275q11 0 13 -7t2 -18q0 -10 -2 -17.5t-13 -7.5h-260q-11 0 -13 7.5t-2 17.5q0 11 2 18t13 7h260v0z" />
    <glyph glyph-name="plus" unicode="&#x2795;" horiz-adv-x="390" 
d="M325 275q11 0 13 -7t2 -18q0 -10 -2 -17.5t-13 -7.5h-105v-105q0 -10 -7 -12.5t-18 -2.5t-18 2.5t-7 12.5v105h-105q-11 0 -13 7.5t-2 17.5q0 11 2 18t13 7h105v105q0 11 7 13t18 2t18 -2t7 -13v-105h105v0z" />
    <glyph glyph-name="erase" unicode="&#x232b;" 
d="M500 425q21 0 35.5 -14.5t14.5 -35.5v-250q0 -20 -14.5 -35t-35.5 -15h-239q-8 0 -18 4t-17 10l-170 148q-6 6 -6 13.5t6 13.5l170 148q7 6 17 9.5t18 3.5h239zM466 187l-64 63l64 64l-36 36l-64 -63l-64 63l-36 -36l64 -64l-64 -63l36 -37l64 64l64 -64z" />
    <glyph glyph-name="block" unicode="&#x1f6ab;" horiz-adv-x="580" 
d="M290 490q50 0 93.5 -19t76 -51.5t51.5 -76t19 -93.5t-19 -93.5t-51.5 -76t-76 -51.5t-93.5 -19t-93.5 19t-76 51.5t-51.5 76t-19 93.5t19 93.5t51.5 76t76 51.5t93.5 19zM108 250q0 -32 10.5 -62t30.5 -53l257 257q-24 20 -53.5 30.5t-62.5 10.5q-38 0 -71 -14.5t-58 -39
t-39 -58t-14 -71.5zM290 68q38 0 71.5 14.5t58 39t39 57.5t14.5 71q0 33 -11 63t-30 53l-257 -257q23 -20 52.5 -30.5t62.5 -10.5z" />
    <glyph glyph-name="info" unicode="&#x2139;" horiz-adv-x="330" 
d="M226 500q25 0 37.5 -14t12.5 -34q0 -25 -19 -44t-48 -19q-24 0 -37 13t-12 36q0 10 4 21t12.5 20t20.5 15t29 6zM123 0q-10 0 -18 4t-12.5 13.5t-4 27t7.5 44.5l30 127q7 28 0 28q-6 0 -26.5 -8.5t-36.5 -19.5l-13 22q24 21 49 37t48 27t42 17t31 6q20 0 24 -22t-6 -59
l-35 -133q-5 -18 -3.5 -25t6.5 -7q6 0 23 7.5t36 22.5l15 -20q-47 -48 -92 -68.5t-65 -20.5z" />
    <glyph glyph-name="circled-info" unicode="&#xe705;" horiz-adv-x="562" 
d="M278 480q48 1 90 -16.5t73.5 -48t50 -72t19.5 -89.5t-16.5 -90t-48.5 -74t-72.5 -50.5t-89.5 -19.5q-48 0 -90 17.5t-73.5 48t-50 72t-19.5 89.5t16.5 90t48.5 73.5t72.5 50.5t89.5 19zM304 404q-23 0 -33.5 -13t-10.5 -24q-1 -14 7 -22t25 -8q20 0 31 11.5t11 26.5
q0 11 -6.5 20t-23.5 9zM244 107q12 0 39 11.5t56 40.5l-9 12q-12 -9 -22.5 -13.5t-13.5 -4.5q-7 0 -2 19l21 80q6 22 3.5 35t-14.5 13q-14 0 -43.5 -13.5t-58.5 -38.5l8 -13q9 6 21.5 11.5t15.5 5.5q6 0 0 -17l-18 -76q-8 -32 -1.5 -42t18.5 -10z" />
    <glyph glyph-name="help" unicode="&#x2753;" horiz-adv-x="390" 
d="M297 445q43 -31 43 -92q0 -18 -6 -33.5t-15 -28.5q-5 -8 -17 -18t-27 -22l-23 -15q-8 -7 -15 -14.5t-9 -15.5q-3 -8 -4 -22q0 -2 -1.5 -4.5t-6.5 -2.5h-64q-5 0 -6.5 2t-1.5 4q1 22 3 37t11 25q7 9 17.5 18t21.5 17q12 9 25 17q11 8 17 17q5 8 9.5 16.5t4.5 18.5
q0 19 -13 39q-14 18 -46 18q-34 0 -47 -22q-14 -21 -14 -46h-83q3 81 57 116q34 21 83 21q65 0 107 -30zM189 127q22 0 36.5 -14.5t13.5 -37.5t-16 -36.5t-37 -12.5q-22 0 -36.5 14.5t-13.5 37.5t16 36.5t37 12.5z" />
    <glyph glyph-name="circled-help" unicode="&#xe704;" horiz-adv-x="562" 
d="M278 480q48 1 90 -16.5t73.5 -48t50 -72t19.5 -89.5t-16.5 -90t-48.5 -74t-72.5 -50.5t-89.5 -19.5q-48 0 -90 17.5t-73.5 48t-50 72t-19.5 89.5t16.5 90t48.5 73.5t72.5 50.5t89.5 19zM277 110q15 0 24.5 9.5t9.5 23.5q1 15 -8.5 24.5t-24.5 9.5h-1q-14 0 -23.5 -9
t-10.5 -23q0 -15 9.5 -24.5t23.5 -10.5h1zM360 274q13 17 13 39q0 38 -27 58q-26 19 -67 19q-32 0 -52 -13q-34 -21 -36 -73v-2h55v2q0 13 8 27q7 12 27 12t26 -10q8 -10 8 -22q0 -9 -8 -20q-4 -6 -10 -10q-1 -1 -16 -11t-24 -21q-5 -7 -6.5 -16t-2.5 -23v-4h54v2q0 7 0.5 9
t1.5 5q3 10 14 18l14 9q10 8 17 14t11 11z" />
    <glyph glyph-name="warning" unicode="&#x26a0;" horiz-adv-x="582" 
d="M529 63q5 -8 0 -17q-5 -8 -15 -8h-446q-9 0 -14 8q-6 9 -1 17l223 391q4 9 15 9q10 0 15 -9zM319 138h-55v-50h55v50zM319 325h-55v-150h55v150z" />
    <glyph glyph-name="cycle" unicode="&#x1f504;" horiz-adv-x="512" 
d="M202 203v-146l-138 8l44 43q-29 30 -43 68t-14 77t15 76.5t45 67.5q26 26 56.5 40t63.5 18l2 -51q-50 -8 -86 -44q-22 -22 -33.5 -50t-11.5 -57t10.5 -57t31.5 -51zM448 436l-44 -43q29 -31 43 -68.5t14 -76.5t-15 -76.5t-45 -67.5q-25 -26 -56 -40t-64 -19l-1 52
q49 8 85 44q22 22 33.5 50t11.5 57t-10.5 57t-31.5 51l-57 -58l-1 146z" />
    <glyph glyph-name="cw" unicode="&#x27f3;" horiz-adv-x="570" 
d="M254 455q42 0 79 -15.5t64.5 -42.5t44 -63.5t17.5 -77.5h61l-92 -103l-92 103h72q-1 31 -13.5 58t-33.5 47t-48.5 31.5t-58.5 11.5q-32 0 -59.5 -12t-48.5 -33t-33 -49t-12 -60t12 -59.5t33 -48.5t48.5 -33t59.5 -12q52 0 91 30l35 -38q-26 -20 -58 -32t-68 -12
q-42 0 -79 16t-65 44t-44 65.5t-16 79.5q0 43 16 80t44 65t65 44t79 16z" />
    <glyph glyph-name="ccw" unicode="&#x27f2;" horiz-adv-x="570" 
d="M316 443q42 0 79.5 -16t65 -44t43.5 -65.5t16 -79.5t-16 -79.5t-43.5 -65.5t-65 -44t-79.5 -16q-36 0 -68 11.5t-58 32.5l35 37q19 -14 42 -22t49 -8q31 0 59 12t49 33t33 49t12 60t-12 60t-33 49t-49 33t-59 12t-58.5 -11.5t-48.5 -32t-33 -47.5t-13 -58h71l-92 -102
l-92 102h62q1 42 17 78.5t44 63.5t64.5 42.5t78.5 15.5z" />
    <glyph glyph-name="shuffle" unicode="&#x1f500;" 
d="M427 333q-21 0 -39 -8t-34 -22t-31 -32.5t-30 -38.5q-17 -23 -36 -45.5t-42 -41.5t-50.5 -30.5t-62.5 -11.5h-52v70h52q22 0 40 8t34 22t31 32.5t30 38.5q17 23 36 46t41.5 41.5t50 30t62.5 11.5h18v60l105 -90l-105 -90v50h-18zM185 289q-17 18 -37 28.5t-46 10.5h-52
v70h52q41 0 71.5 -15.5t55.5 -38.5q-9 -10 -16.5 -20t-15.5 -19q-3 -5 -6 -8.5t-6 -7.5zM445 218l105 -90l-105 -90v60h-18q-42 0 -73 16.5t-57 41.5q10 12 19 23.5t17 22.5q2 2 3.5 4.5t3.5 5.5q19 -20 40 -32t47 -12h18v50z" />
    <glyph glyph-name="back" unicode="&#x1f519;" horiz-adv-x="525" 
d="M425 345q20 0 35 -14.5t15 -35.5v-145q0 -20 -15 -35t-35 -15h-345v70h325v105h-250v-55l-105 90l105 90v-55h270v0z" />
    <glyph glyph-name="level-down" unicode="&#x21b3;" horiz-adv-x="472" 
d="M100 175q-21 0 -35.5 15t-14.5 35v175h70v-155h182v75l120 -110l-120 -110v75h-202v0z" />
    <glyph glyph-name="retweet" unicode="&#xe717;" 
d="M311 170l64 -70h-224q-21 0 -35.5 15t-14.5 35v151h-51l88 99l87 -99h-50v-131h136zM550 200l-87 -100l-88 100h51v130h-137l-64 70h225q20 0 35 -14.5t15 -35.5v-150h50z" />
    <glyph glyph-name="loop" unicode="&#x1f501;" horiz-adv-x="550" 
d="M450 345q21 0 35.5 -14.5t14.5 -35.5v-145q0 -20 -14.5 -35t-35.5 -15h-350q-20 0 -35 15t-15 35v145q0 21 15 35.5t35 14.5h125v55l100 -90l-100 -90v55h-105v-105h310v105h-75v70h95v0z" />
    <glyph glyph-name="back-in-time" unicode="&#xe771;" horiz-adv-x="570" 
d="M316 455q42 0 79.5 -16t65 -44t43.5 -65t16 -80q0 -42 -16 -79.5t-43.5 -65.5t-65 -44t-79.5 -16q-36 0 -68 12t-58 32l35 38q41 -30 91 -30q31 0 59 12t49 33t33 48.5t12 59.5t-12 60t-33 49t-49 33t-59 12t-58.5 -11.5t-48.5 -31.5t-33 -47t-13 -58h71l-92 -103
l-92 103h62q1 41 17 77.5t44 63.5t64.5 42.5t78.5 15.5zM333 360v-102l65 -65l-25 -25l-75 75v117h35z" />
    <glyph glyph-name="level-up" unicode="&#x21b0;" horiz-adv-x="525" 
d="M150 205l-100 80l100 85v-50h275q20 0 35 -14.5t15 -35.5v-140h-70v120h-255v-45z" />
    <glyph glyph-name="numbered-list" unicode="&#xe005;" horiz-adv-x="450" 
d="M100 175q11 0 18 -7t7 -18q0 -10 -7 -17.5t-18 -7.5h-25q-11 0 -18 7.5t-7 17.5q0 11 7 18t18 7h25zM100 275q11 0 18 -7t7 -18q0 -10 -7 -17.5t-18 -7.5h-25q-11 0 -18 7.5t-7 17.5q0 11 7 18t18 7h25zM100 375q11 0 18 -7t7 -18q0 -10 -7 -17.5t-18 -7.5h-25
q-11 0 -18 7.5t-7 17.5q0 11 7 18t18 7h25zM200 325q-11 0 -18 7.5t-7 17.5q0 11 7 18t18 7h175q11 0 18 -7t7 -18q0 -10 -7 -17.5t-18 -7.5h-175zM375 275q11 0 18 -7t7 -18q0 -10 -7 -17.5t-18 -7.5h-175q-11 0 -18 7.5t-7 17.5q0 11 7 18t18 7h175zM375 175q11 0 18 -7
t7 -18q0 -10 -7 -17.5t-18 -7.5h-175q-11 0 -18 7.5t-7 17.5q0 11 7 18t18 7h175z" />
    <glyph glyph-name="add-to-list" unicode="&#xe003;" 
d="M225 275q11 0 18 -7t7 -18q0 -10 -7 -17.5t-18 -7.5h-150q-11 0 -18 7.5t-7 17.5q0 11 7 18t18 7h150zM225 175q11 0 18 -7t7 -18q0 -10 -7 -17.5t-18 -7.5h-150q-11 0 -18 7.5t-7 17.5q0 11 7 18t18 7h150zM535 275q11 0 13 -7t2 -18q0 -10 -2 -17.5t-13 -7.5h-85v-85
q0 -10 -7 -12.5t-18 -2.5t-18 2.5t-7 12.5v85h-82q-11 0 -13 7.5t-2 17.5q0 11 2 18t13 7h82v85q0 11 7 13t18 2t18 -2t7 -13v-85h85zM225 375q11 0 18 -7t7 -18q0 -10 -7 -17.5t-18 -7.5h-150q-11 0 -18 7.5t-7 17.5q0 11 7 18t18 7h150z" />
    <glyph glyph-name="layout" unicode="&#x268f;" horiz-adv-x="400" 
d="M135 400q40 0 40 -40v-45q0 -40 -40 -40h-45q-40 0 -40 40v45q0 40 40 40h45zM310 400q40 0 40 -40v-45q0 -40 -40 -40h-45q-40 0 -40 40v45q0 40 40 40h45zM135 225q40 0 40 -40v-45q0 -40 -40 -40h-45q-40 0 -40 40v45q0 40 40 40h45zM310 225q40 0 40 -40v-45
q0 -40 -40 -40h-45q-40 0 -40 40v45q0 40 40 40h45z" />
    <glyph glyph-name="list" unicode="&#x2630;" horiz-adv-x="450" 
d="M375 275q11 0 18 -7t7 -18q0 -10 -7 -17.5t-18 -7.5h-300q-11 0 -18 7.5t-7 17.5q0 11 7 18t18 7h300zM75 325q-11 0 -18 7.5t-7 17.5q0 11 7 18t18 7h300q11 0 18 -7t7 -18q0 -10 -7 -17.5t-18 -7.5h-300zM375 175q11 0 18 -7t7 -18q0 -10 -7 -17.5t-18 -7.5h-300
q-11 0 -18 7.5t-7 17.5q0 11 7 18t18 7h300z" />
    <glyph glyph-name="text-doc" unicode="&#x1f4c4;" horiz-adv-x="450" 
d="M156 274h140v-45h-140v45zM350 475q21 0 35.5 -14.5t14.5 -35.5v-350q0 -20 -14.5 -35t-35.5 -15h-250q-20 0 -35 15t-15 35v350q0 21 15 35.5t35 14.5h250zM350 425h-250v-350h250v350zM295 327h-140v44h140v-44zM295 131h-140v44h140v-44z" />
    <glyph glyph-name="text-doc-inverted" unicode="&#xe731;" horiz-adv-x="450" 
d="M350 475q21 0 35.5 -14.5t14.5 -35.5v-350q0 -20 -14.5 -35t-35.5 -15h-250q-20 0 -35 15t-15 35v350q0 21 15 35.5t35 14.5h250zM120 327h210v44h-210v-44zM330 175h-210v-44h210v44zM330 274h-209v-45h209v45z" />
    <glyph glyph-name="doc" unicode="&#xe730;" horiz-adv-x="450" 
d="M350 475q21 0 35.5 -14.5t14.5 -35.5v-350q0 -20 -14.5 -35t-35.5 -15h-250q-20 0 -35 15t-15 35v350q0 21 15 35.5t35 14.5h250zM350 425h-250v-350h250v350z" />
    <glyph glyph-name="docs" unicode="&#xe736;" horiz-adv-x="601" 
d="M535 315q8 -2 12.5 -8.5t2.5 -14.5l-75 -278q-2 -8 -9 -11.5t-15 -1.5l-203 55q-8 2 -12 8.5t-2 14.5l12 46l-90 -24q-8 -2 -15.5 1.5t-9.5 11.5l-80 301q-2 8 2 15t12 9l227 61q8 2 15 -1.5t9 -11.5l33 -122zM163 139l196 53l-72 270l-196 -52zM508 285l-149 41l38 -141
q2 -8 -2 -14.5t-12 -8.5l-98 -26l-13 -51l170 -46z" />
    <glyph glyph-name="landscape-doc" unicode="&#xe737;" 
d="M50 375q0 21 15 35.5t35 14.5h400q21 0 35.5 -14.5t14.5 -35.5v-250q0 -20 -14.5 -35t-35.5 -15h-400q-20 0 -35 15t-15 35v250zM100 375v-250h400v250h-400z" />
    <glyph glyph-name="picture" unicode="&#x1f304;" 
d="M428 334l-62 75l-107 -75h-90q-26 0 -45 -19.5t-19 -45.5v-80l-54 148q-5 19 11 26l340 124q8 2 15 -1t10 -11l51 -141h-50zM531 289q8 0 13.5 -6t5.5 -14v-236q0 -8 -5.5 -14t-13.5 -6h-362q-8 0 -13.5 6t-5.5 14v236q0 8 5.5 14t13.5 6h362zM503 144l-36 80l-83 -30
l-65 -66l-69 85l-46 -107v-43h299v81z" />
    <glyph glyph-name="video" unicode="&#x1f3ac;" horiz-adv-x="590" 
d="M490 375v-50h50v-50h-50v-50h50v-50h-50v-50h50v-30q0 -8 -6 -14t-14 -6h-450q-8 0 -14 6t-6 14v30h50v50h-50v50h50v50h-50v50h50v50h-50v30q0 9 6 14.5t14 5.5h450q8 0 14 -5.5t6 -14.5v-30h-50zM365 250l-125 75v-150z" />
    <glyph glyph-name="music" unicode="&#x1f3b5;" horiz-adv-x="450" 
d="M350 475q21 0 35.5 -14.5t14.5 -35.5v-350q0 -20 -14.5 -35t-35.5 -15h-250q-20 0 -35 15t-15 35v350q0 21 15 35.5t35 14.5h250zM295 237q16 25 11.5 46.5t-16.5 39.5t-24.5 33t-12.5 27h-30v-184q-21 8 -45 -1q-21 -8 -32 -24.5t-6 -31.5q6 -16 26.5 -22.5t42.5 0.5
q44 15 44 49v131q15 -2 22.5 -10.5t11 -18t3 -19.5t-1.5 -15q-2 -4 0 -5.5t7 5.5z" />
    <glyph glyph-name="folder" unicode="&#x1f4c1;" horiz-adv-x="602" 
d="M528 325q17 0 20.5 -7t2.5 -17l-21 -226q-1 -10 -5.5 -17.5t-21.5 -7.5h-403q-17 0 -22 7.5t-6 17.5l-21 226q-1 10 2.5 17t20.5 7h454zM516 360h-423l7 66q2 10 9.5 17t18.5 7h82q11 0 23 -4.5t20 -12.5l15 -15q7 -8 19.5 -13t23.5 -5h170q11 0 19.5 -6t10.5 -14z" />
    <glyph glyph-name="archive" unicode="&#xe800;" horiz-adv-x="590" 
d="M469 350h-348v25q0 9 3.5 14.5t8.5 7.5q5 3 13 3h298q7 0 12 -3q5 -2 9 -7.5t4 -14.5v-25zM395 450q7 0 12 -3q5 -2 9 -7.5t4 -14.5h-249q0 9 3.5 14.5t8.5 7.5q5 3 13 3h199zM519 350q6 -5 10.5 -9t7 -9t3 -12.5t-1.5 -19.5l-7.5 -45t-12 -70t-12 -69t-6.5 -41
q-2 -10 -7 -15t-10 -7q-6 -3 -14 -3h-348q-8 0 -14 3q-5 2 -9.5 7t-6.5 15q-2 9 -7.5 41t-11.5 69t-12 70t-8 45t-1.5 19.5t3 12.5t7 9t10.5 9l15 15v-40h418v40zM395 265h-35v-40h-130v40h-34v-50q0 -8 3 -13q2 -5 7 -8.5t14 -3.5h150q9 0 14.5 3.5t7.5 8.5q3 5 3 13v50z
" />
    <glyph glyph-name="air" unicode="&#x1f4a8;" horiz-adv-x="552" 
d="M92 342q-8 -8 -18 -6.5t-17 9.5t-6 18.5t9 17.5q18 15 38.5 29.5t47 21t61.5 0.5t81 -32q35 -20 60 -25t44.5 -1t35 15.5t32.5 25.5q8 7 18 6t17 -9t6 -18.5t-9 -17.5q-22 -20 -49.5 -37.5t-67.5 -17.5q-23 0 -50 7.5t-61 27.5q-35 20 -60 25.5t-44.5 1.5t-35.5 -15.5
t-32 -25.5zM460 287q8 7 18 6t17 -9t6 -18.5t-9 -17.5q-22 -19 -49.5 -37t-67.5 -18q-23 0 -50 8t-61 27q-35 20 -60 25.5t-44.5 1.5t-35.5 -15.5t-32 -25.5q-8 -7 -18 -6t-17 9t-6 18.5t9 17.5q18 15 38.5 30t47 21.5t61.5 0.5t81 -32q35 -20 60 -25.5t44.5 -1.5t35 15.5
t32.5 25.5zM460 159q8 7 18 6t17 -9t6 -18.5t-9 -17.5q-22 -19 -49.5 -37t-67.5 -18q-23 0 -50 8t-61 27q-35 20 -60 25.5t-44.5 1.5t-35.5 -15.5t-32 -25.5q-8 -7 -18 -6t-17 9t-6 18.5t9 17.5q18 15 38.5 30t47 21.5t61.5 0.5t81 -32q35 -20 60 -25.5t44.5 -1.5t35 15.5
t32.5 25.5z" />
    <glyph glyph-name="line-graph" unicode="&#x1f4c8;" horiz-adv-x="601" 
d="M67 217q-9 2 -13.5 10t-2.5 18q2 9 10 13.5t17 2.5l49 -12l-26 -40zM512 211q7 6 16.5 5.5t15.5 -7.5q7 -7 6.5 -16.5t-7.5 -15.5l-126 -113q-6 -6 -15 -6q-7 0 -14 5l-143 110l-27 7l25 40l18 -4q6 -2 8 -4l132 -102zM92 46q-6 -11 -19 -11q-6 0 -12 4q-8 5 -10 14t3 17
l187 294q4 8 14 10q9 3 18 -3l123 -78l113 163q5 8 14 9.5t17 -4.5q8 -5 9.5 -14t-3.5 -17l-126 -181q-5 -8 -14 -9.5t-17 3.5l-122 78z" />
    <glyph glyph-name="pie-chart" unicode="&#x25f4;" horiz-adv-x="520" 
d="M234 276h-184q4 36 20 68t40.5 56.5t56 40t67.5 19.5v-184zM287 460q39 -5 72 -23t58 -46t39 -64t14 -76q0 -44 -16.5 -82t-45 -67t-67 -45.5t-82.5 -16.5q-40 0 -76 14t-63.5 39t-46 58.5t-23.5 72.5h212q11 0 18 7t7 18v211z" />
    <glyph glyph-name="bar-graph" unicode="&#x1f4ca;" horiz-adv-x="500" 
d="M425 475q11 0 18 -7t7 -18v-425h-100v425q0 11 4.5 18t15.5 7h55zM275 325q11 0 18 -7t7 -18v-275h-100v275q0 11 4.5 18t15.5 7h55zM125 175q11 0 18 -7t7 -18v-125h-100v125q0 11 4.5 18t15.5 7h55z" />
    <glyph glyph-name="squared-minus" unicode="&#x229f;" horiz-adv-x="500" 
d="M400 450q21 0 35.5 -14.5t14.5 -35.5v-300q0 -20 -14.5 -35t-35.5 -15h-300q-20 0 -35 15t-15 35v300q0 21 15 35.5t35 14.5h300zM375 275h-250v-50h250v50z" />
    <glyph glyph-name="squared-plus" unicode="&#x229e;" horiz-adv-x="500" 
d="M400 450q21 0 35.5 -14.5t14.5 -35.5v-300q0 -20 -14.5 -35t-35.5 -15h-300q-20 0 -35 15t-15 35v300q0 21 15 35.5t35 14.5h300zM375 275h-100v100h-50v-100h-100v-50h100v-100h50v100h100v50z" />
    <glyph glyph-name="squared-cross" unicode="&#x274e;" horiz-adv-x="500" 
d="M400 450q21 0 35.5 -14.5t14.5 -35.5v-300q0 -20 -14.5 -35t-35.5 -15h-300q-20 0 -35 15t-15 35v300q0 21 15 35.5t35 14.5h300zM370 174l-77 76l77 77l-43 43l-77 -76l-76 76l-44 -43l77 -77l-77 -76l44 -43l76 76l77 -76z" />
    <glyph glyph-name="switch" unicode="&#x21c6;" 
d="M400 371v-70h-250v-45l-100 80l100 85v-50h250zM550 161l-100 -80v45h-250v70h250v50z" />
    <glyph glyph-name="trash" unicode="&#xe729;" horiz-adv-x="480" 
d="M75 304q32 -18 76 -26.5t89 -8.5t89 8.5t76 26.5l-27 -243q-1 -5 -11 -13t-28 -16t-43.5 -14.5t-55.5 -6.5t-55 6.5t-43 14.5t-28.5 16t-11.5 13zM319 454q49 -9 80 -27.5t31 -35.5v-5q0 -14 -15 -27t-40.5 -22.5t-60.5 -15t-74 -5.5t-74 5.5t-60.5 15t-40.5 22.5t-15 27
v5q0 17 31.5 35.5t79.5 27.5l21 24q7 8 14.5 10.5t20.5 2.5h46q14 0 21.5 -2.5t13.5 -10.5zM334 398q-13 15 -24 28q-9 11 -17.5 21.5t-10.5 13.5q-7 8 -16 8h-51q-11 0 -16 -8q-3 -3 -11.5 -13.5t-17.5 -21.5q-11 -13 -24 -28h42l32 33h41l31 -33h42z" />
    <glyph glyph-name="upload" unicode="&#x1f4e4;" horiz-adv-x="601" 
d="M430 341h-82v-128h-95v128h-83l130 122zM534 174q8 -5 13 -15.5t2 -20.5l-14 -77q-2 -10 -11 -16.5t-20 -6.5h-408q-11 0 -20 6.5t-11 16.5l-14 77q-2 10 2.5 20.5t13.5 15.5l79 54h49l-85 -65h89q4 0 6 -4l20 -55h150l20 55q4 4 6 4h89l-85 65h49z" />
    <glyph glyph-name="download" unicode="&#x1f4e5;" horiz-adv-x="601" 
d="M534 174q8 -5 13 -15.5t2 -20.5l-14 -77q-2 -10 -11 -16.5t-20 -6.5h-408q-11 0 -20 6.5t-11 16.5l-14 77q-2 10 2.5 20.5t13.5 15.5l79 54h49l-85 -65h89q4 0 6 -4l20 -55h150l20 55q4 4 6 4h89l-85 65h49zM300 213l-130 122h83v128h95v-128h82z" />
    <glyph glyph-name="save" unicode="&#x1f4be;" horiz-adv-x="500" 
d="M450 372v-272q0 -20 -14.5 -35t-35.5 -15h-300q-20 0 -35 15t-15 35v300q0 21 15 35.5t35 14.5h279zM350 425h-200v-125q0 -10 7 -17.5t18 -7.5h150q11 0 18 7.5t7 17.5v125zM325 300h-50v100h50v-100z" />
    <glyph glyph-name="install" unicode="&#xe778;" horiz-adv-x="551" 
d="M492 228q5 -10 7 -23.5t0 -24.5l-17 -92q-2 -11 -10 -18t-19 -7h-356q-11 0 -19 7t-10 18l-17 92q-2 11 0 24.5t7 23.5l79 187q5 10 15 16.5t21 6.5h52l-10 -102h-67l127 -105l128 105h-68l-9 102h51q11 0 21.5 -6.5t15.5 -16.5zM458 162q2 11 -4.5 19t-17.5 8h-322
q-11 0 -17.5 -8t-4.5 -19l7 -37q2 -11 10 -18.5t18 -7.5h296q11 0 19 7.5t10 18.5z" />
    <glyph glyph-name="cloud" unicode="&#x2601;" 
d="M430 322q25 0 47 -9t38 -25t25.5 -37.5t9.5 -45.5t-9.5 -45.5t-25.5 -37.5t-38 -25t-47 -9h-289q-19 0 -35.5 7t-29 19t-19.5 28t-7 34q0 37 26.5 63t64.5 26q2 0 5 -0.5t5 -0.5q-1 5 -1 9.5v9.5q0 27 10.5 50.5t28.5 41.5t42 28t52 10q45 0 80 -26t47 -67q5 1 10 1.5
t10 0.5z" />
    <glyph glyph-name="upload-cloud" unicode="&#xe711;" 
d="M430 322q25 0 47 -9t38 -25t25.5 -37.5t9.5 -45.5t-9.5 -45.5t-25.5 -37.5t-38 -25t-47 -9h-95v95h53l-88 115l-87 -115h52v-95h-124q-19 0 -35.5 7t-29 19t-19.5 28t-7 34q0 37 26.5 63t64.5 26q7 0 10 -1q-1 5 -1 9.5v9.5q0 27 10.5 50.5t28.5 41.5t42 28t52 10
q45 0 80 -26t47 -67q5 1 10 1.5t10 0.5z" />
    <glyph glyph-name="bookmark" unicode="&#x1f516;" horiz-adv-x="280" 
d="M205 475q11 0 18 -7t7 -18v-425l-90 90l-90 -90v425q0 11 4.5 18t15.5 7h135v0z" />
    <glyph glyph-name="bookmarks" unicode="&#x1f4d1;" horiz-adv-x="375" 
d="M300 500q10 0 17.5 -7t7.5 -18v-425l-75 90v310q0 11 -7.5 18t-17.5 7h-50q0 11 4.5 18t15.5 7h105zM175 425q10 0 17.5 -7t7.5 -18v-400l-75 90l-75 -90v400q0 11 4.5 18t15.5 7h105z" />
    <glyph glyph-name="open-book" unicode="&#x1f4d6;" horiz-adv-x="550" 
d="M220 160l-100 40v34l100 -40v-34zM220 264l-100 40v34l100 -40v-34zM489 471q11 -6 11 -21v-320q0 -17 -16 -23l-199 -80q-1 -1 -2 -1h-3q-2 0 -2.5 -0.5t-2.5 -0.5t-2.5 0.5t-2.5 0.5h-3q-1 0 -2 1l-199 80q-16 6 -16 23v320q0 15 11 21q11 8 23 3l191 -77l191 77
q12 5 23 -3zM250 357l-160 64v-280l160 -64v280zM460 421l-160 -64v-280l160 64v280zM430 200l-100 -40v34l100 40v-34zM430 304l-100 -40v34l100 40v-34z" />
    <glyph glyph-name="play" unicode="&#x25b6;" horiz-adv-x="350" 
d="M293 263q1 -2 3 -4q4 -4 4 -9t-4 -9l-3 -3l-214 -133q-12 -8 -20.5 -3t-8.5 20v257q0 15 8.5 20t20.5 -3l214 -133v0z" />
    <glyph glyph-name="paus" unicode="&#x2016;" horiz-adv-x="365" 
d="M270 425q18 0 31.5 -6.5t13.5 -25.5v-285q0 -19 -13.5 -26t-31.5 -7q-19 0 -32 7t-13 26v285q0 19 13 25.5t32 6.5zM95 425q18 0 31.5 -6.5t13.5 -25.5v-285q0 -19 -13.5 -26t-31.5 -7q-19 0 -32 7t-13 26v285q0 19 13 25.5t32 6.5z" />
    <glyph glyph-name="record" unicode="&#x25cf;" horiz-adv-x="450" 
d="M225 425q36 0 68 -13.5t56 -37.5t37.5 -56t13.5 -68t-13.5 -68t-37.5 -55.5t-56 -37.5t-68 -14t-68 14t-56 37.5t-37.5 55.5t-13.5 68t13.5 68t37.5 56t56 37.5t68 13.5z" />
    <glyph glyph-name="stop" unicode="&#x25a0;" horiz-adv-x="400" 
d="M313 400q18 0 27.5 -6.5t9.5 -25.5v-235q0 -19 -9.5 -26t-27.5 -7h-225q-19 0 -28.5 7t-9.5 26v235q0 19 9.5 25.5t28.5 6.5h225v0z" />
    <glyph glyph-name="ff" unicode="&#x23e9;" horiz-adv-x="540" 
d="M486 259q4 -4 4 -9q0 -4 -4 -8l-3 -3l-186 -124q-11 -8 -18.5 -3.5t-7.5 18.5v241q0 14 7.5 18.5t18.5 -3.5l186 -124zM259 259q4 -4 4 -9q0 -4 -4 -8l-3 -3l-180 -124q-11 -8 -18.5 -3.5t-7.5 18.5v241q0 14 7.5 18.5t18.5 -3.5l180 -124z" />
    <glyph glyph-name="fb" unicode="&#x23ea;" horiz-adv-x="540" 
d="M50 250q0 6 3 9q2 2 4 3l187 124q11 8 18.5 3.5t7.5 -18.5v-241q0 -14 -7.5 -18.5t-18.5 3.5l-187 124q-2 1 -4 3q-3 3 -3 8zM277 250q0 6 3 9q2 2 4 3l180 124q11 8 18.5 3.5t7.5 -18.5v-241q0 -14 -7.5 -18.5t-18.5 3.5l-180 124q-2 1 -4 3q-3 3 -3 8z" />
    <glyph glyph-name="to-start" unicode="&#x23ee;" horiz-adv-x="400" 
d="M137 250q0 6 3 9q2 2 4 3l182 114q10 7 17 2.5t7 -17.5v-221q0 -13 -7 -17.5t-17 2.5l-182 114q-2 1 -4 3q-3 3 -3 8zM50 367q0 17 10.5 23t27.5 6t27 -6t10 -23v-233q0 -17 -10 -23t-27 -6t-27.5 6t-10.5 23v233z" />
    <glyph glyph-name="to-end" unicode="&#x23ed;" horiz-adv-x="400" 
d="M259 259q4 -4 4 -9q0 -4 -4 -8l-3 -3l-181 -114q-11 -7 -18 -2.5t-7 17.5v221q0 13 7 17.5t18 -2.5l181 -114zM313 396q17 0 27 -6t10 -23v-233q0 -17 -10 -23t-27 -6t-27.5 6t-10.5 23v233q0 17 10.5 23t27.5 6z" />
    <glyph glyph-name="resize-full" unicode="&#xe744;" horiz-adv-x="496" 
d="M288 448h158v-158l-50 62l-73 -76l-50 50l76 73zM173 226l50 -50l-76 -73l61 -50h-158v158l50 -61z" />
    <glyph glyph-name="resize-small" unicode="&#xe746;" horiz-adv-x="550" 
d="M128 148l-53 50h148v-148l-50 53l-73 -78l-50 50zM500 425l-77 -72l52 -50h-147v147l50 -52l72 77z" />
    <glyph glyph-name="volume" unicode="&#x23f7;" horiz-adv-x="548" 
d="M498 165q0 -17 -11.5 -28.5t-28.5 -11.5h-390q-17 0 -18 6t13 14l401 226q14 9 24 3.5t10 -22.5v-187z" />
    <glyph glyph-name="infinity" unicode="&#x221e;" 
d="M448 360q18 0 36.5 -5.5t33 -18.5t23.5 -34t9 -52q0 -30 -9 -51t-23.5 -34t-33 -19t-36.5 -6q-39 0 -79 20t-69 53q-29 -33 -68.5 -53t-78.5 -20q-19 0 -37.5 6t-33 19t-23.5 34t-9 51q0 31 9 52t23.5 34t33 18.5t37.5 5.5q39 0 78.5 -19.5t68.5 -52.5q29 33 69 52.5
t79 19.5zM153 184q31 0 64 18.5t56 47.5q-23 29 -56 47.5t-64 18.5q-57 0 -57 -66t57 -66zM448 184q57 0 57 66t-57 66q-32 0 -65 -18.5t-55 -47.5q22 -29 55 -47.5t65 -18.5z" />
    <glyph glyph-name="flow-cascade" unicode="&#x1f568;" horiz-adv-x="420" 
d="M310 135q25 0 42.5 -17t17.5 -43q0 -25 -17.5 -42.5t-42.5 -17.5q-19 0 -33.5 10t-21.5 27h-82q-24 0 -40.5 8.5t-27 21.5t-15 28t-4.5 28v232q-16 8 -26 22.5t-10 32.5q0 26 17.5 43t42.5 17t42.5 -17t17.5 -43q0 -18 -10 -32.5t-26 -22.5v-57q0 -3 1 -9.5t5 -13
t11.5 -11.5t21.5 -5h82q7 17 21.5 26.5t33.5 9.5q25 0 42.5 -17t17.5 -43q0 -25 -17.5 -42.5t-42.5 -17.5q-19 0 -33.5 10t-21.5 27h-82q-12 0 -21.5 2t-17.5 6v-97q0 -3 1 -9.5t5 -13t11.5 -11.5t21.5 -5h82q7 17 21.5 26.5t33.5 9.5zM310 285q-14 0 -24.5 -10t-10.5 -25
q0 -14 10.5 -24t24.5 -10t24.5 10t10.5 24q0 15 -10.5 25t-24.5 10zM75 425q0 -14 10.5 -24t24.5 -10t24.5 10t10.5 24q0 15 -10.5 25t-24.5 10t-24.5 -10t-10.5 -25zM310 41q14 0 24.5 10t10.5 24q0 15 -10.5 25t-24.5 10t-24.5 -10t-10.5 -25q0 -14 10.5 -24t24.5 -10z
" />
    <glyph glyph-name="flow-branch" unicode="&#x1f569;" horiz-adv-x="420" 
d="M370 400q0 -19 -10 -33.5t-27 -21.5q-3 -31 -15 -51.5t-28.5 -33t-36 -20t-36.5 -12.5t-31 -10.5t-24.5 -13t-17.5 -19.5t-9 -30q16 -7 25.5 -21.5t9.5 -33.5q0 -25 -17.5 -42.5t-42.5 -17.5t-42.5 17.5t-17.5 42.5q0 19 10 33.5t26 22.5v189q-16 8 -26 22.5t-10 32.5
q0 26 17.5 43t42.5 17t42.5 -17t17.5 -43q0 -18 -10 -32.5t-26 -22.5v-102q16 11 34 18t35 12t31 10.5t25 13t17.5 19.5t8.5 30q-15 7 -25 21.5t-10 32.5q0 26 17.5 43t42.5 17t42.5 -17t17.5 -43zM76 400q0 -14 10 -24t24 -10t24.5 10t10.5 24q0 15 -10.5 25t-24.5 10
t-24 -10t-10 -25zM110 66q14 0 24.5 10t10.5 24q0 15 -10.5 25t-24.5 10t-24 -10t-10 -25q0 -14 10 -24t24 -10zM310 366q14 0 24.5 10t10.5 24q0 15 -10.5 25t-24.5 10t-24 -10t-10 -25q0 -14 10 -24t24 -10z" />
    <glyph glyph-name="flow-tree" unicode="&#x1f56a;" horiz-adv-x="570" 
d="M484 131q16 -8 26 -22.5t10 -33.5q0 -25 -17.5 -42.5t-42.5 -17.5t-42.5 17.5t-17.5 42.5q0 19 10 33.5t26 22.5v57q0 3 -1 9.5t-5 13t-11.5 11.5t-20.5 5h-50q-23 0 -39 6v-102q16 -8 26 -22.5t10 -33.5q0 -25 -17.5 -42.5t-42.5 -17.5t-42.5 17.5t-17.5 42.5
q0 19 10 33.5t26 22.5v102q-15 -6 -38 -6h-50q-14 0 -22 -5.5t-11.5 -12t-4.5 -13t-1 -8.5v-57q16 -8 26 -22.5t10 -33.5q0 -25 -17.5 -42.5t-42.5 -17.5t-42.5 17.5t-17.5 42.5q0 19 10 33.5t26 22.5v57q0 13 4.5 28t15 28t27 21.5t40.5 8.5h50q14 0 21.5 3t11.5 7.5t4.5 9
t0.5 6.5v70q-16 8 -26 22.5t-10 32.5q0 26 17.5 43t42.5 17t42.5 -17t17.5 -43q0 -18 -10 -32.5t-26 -22.5v-70q0 -6 6 -16t33 -10h50q24 0 40 -8.5t26.5 -21.5t15 -28t4.5 -28v-57zM145 75q0 15 -10.5 25t-24.5 10t-24 -10t-10 -25q0 -14 10 -24t24 -10t24.5 10t10.5 24z
M251 425q0 -14 10 -24t24 -10t24.5 10t10.5 24q0 15 -10.5 25t-24.5 10t-24 -10t-10 -25zM320 75q0 15 -10.5 25t-24.5 10t-24 -10t-10 -25q0 -14 10 -24t24 -10t24.5 10t10.5 24zM460 41q14 0 24.5 10t10.5 24q0 15 -10.5 25t-24.5 10t-24 -10t-10 -25q0 -14 10 -24t24 -10
z" />
    <glyph glyph-name="flow-line" unicode="&#x1f56b;" horiz-adv-x="220" 
d="M134 156q16 -8 26 -22.5t10 -33.5q0 -25 -17.5 -42.5t-42.5 -17.5t-42.5 17.5t-17.5 42.5q0 19 10 33.5t26 22.5v189q-16 8 -26 22.5t-10 32.5q0 26 17.5 43t42.5 17t42.5 -17t17.5 -43q0 -18 -10 -32.5t-26 -22.5v-189zM76 400q0 -14 10 -24t24 -10t24.5 10t10.5 24
q0 15 -10.5 25t-24.5 10t-24 -10t-10 -25zM110 66q14 0 24.5 10t10.5 24q0 15 -10.5 25t-24.5 10t-24 -10t-10 -25q0 -14 10 -24t24 -10z" />
    <glyph glyph-name="flow-parallel" unicode="&#x1f56c;" horiz-adv-x="420" 
d="M170 400q0 -18 -10 -32.5t-26 -22.5v-189q16 -8 26 -22.5t10 -33.5q0 -25 -17.5 -42.5t-42.5 -17.5t-42.5 17.5t-17.5 42.5q0 19 10 33.5t26 22.5v189q-16 8 -26 22.5t-10 32.5q0 26 17.5 43t42.5 17t42.5 -17t17.5 -43zM145 100q0 15 -10.5 25t-24.5 10t-24 -10t-10 -25
q0 -14 10 -24t24 -10t24.5 10t10.5 24zM110 366q14 0 24.5 10t10.5 24q0 15 -10.5 25t-24.5 10t-24 -10t-10 -25q0 -14 10 -24t24 -10zM334 156q16 -8 26 -22.5t10 -33.5q0 -25 -17.5 -42.5t-42.5 -17.5t-42.5 17.5t-17.5 42.5q0 19 10 33.5t26 22.5v189q-16 8 -26 22.5
t-10 32.5q0 26 17.5 43t42.5 17t42.5 -17t17.5 -43q0 -18 -10 -32.5t-26 -22.5v-189zM276 400q0 -14 10 -24t24 -10t24.5 10t10.5 24q0 15 -10.5 25t-24.5 10t-24 -10t-10 -25zM310 66q14 0 24.5 10t10.5 24q0 15 -10.5 25t-24.5 10t-24 -10t-10 -25q0 -14 10 -24t24 -10z
" />
    <glyph glyph-name="left-bold" unicode="&#xe4ad;" horiz-adv-x="465" 
d="M239 440v-95h176v-189h-176v-96l-189 190l189 190v0z" />
    <glyph glyph-name="down-bold" unicode="&#xe4b0;" horiz-adv-x="480" 
d="M430 258l-190 -190l-190 190h96v175h188v-175h96v0z" />
    <glyph glyph-name="up-bold" unicode="&#xe4af;" horiz-adv-x="480" 
d="M430 243h-96v-175h-188v175h-96l190 190l190 -190v0z" />
    <glyph glyph-name="right-bold" unicode="&#xe4ae;" horiz-adv-x="465" 
d="M225 440l190 -190l-190 -190v96h-175v189h175v95v0z" />
    <glyph glyph-name="left" unicode="&#x2b05;" horiz-adv-x="465" 
d="M239 85l-189 165l189 165v-95h176v-139h-176v-96v0z" />
    <glyph glyph-name="down" unicode="&#x2b07;" horiz-adv-x="430" 
d="M380 258l-165 -190l-165 190h96v175h138v-175h96v0z" />
    <glyph glyph-name="up" unicode="&#x2b06;" horiz-adv-x="430" 
d="M380 243h-96v-175h-138v175h-96l165 190l165 -190v0z" />
    <glyph glyph-name="right" unicode="&#x27a1;" horiz-adv-x="465" 
d="M225 415l190 -165l-190 -165v96h-175v139h175v95v0z" />
    <glyph glyph-name="circled-left" unicode="&#xe759;" horiz-adv-x="560" 
d="M510 250q0 -48 -18 -89.5t-49.5 -73t-73 -49.5t-89.5 -18t-89.5 18t-73 49.5t-49.5 73t-18 89.5t18 90t49.5 73t73 49t89.5 18t89.5 -18t73 -49t49.5 -73t18 -90zM100 250q0 -37 14 -70t38.5 -57.5t57.5 -38.5t70 -14t70 14t57.5 38.5t38.5 57.5t14 70t-14 70t-38.5 57.5
t-57.5 38.5t-70 14t-70 -14t-57.5 -38.5t-38.5 -57.5t-14 -70zM274 205v-56l-95 101l95 102v-57h102v-90h-102z" />
    <glyph glyph-name="circled-down" unicode="&#xe758;" horiz-adv-x="560" 
d="M280 480q48 0 89.5 -18t73 -49.5t49.5 -73t18 -89.5t-18 -89.5t-49.5 -73t-73 -49.5t-89.5 -18t-89.5 18t-73 49.5t-49.5 73t-18 89.5t18 89.5t49.5 73t73 49.5t89.5 18zM280 70q37 0 70 14t57.5 38.5t38.5 57.5t14 70t-14 70t-38.5 57.5t-57.5 38.5t-70 14t-70 -14
t-57.5 -38.5t-38.5 -57.5t-14 -70t14 -70t38.5 -57.5t57.5 -38.5t70 -14zM325 244h56l-101 -95l-101 95h56v103h90v-103z" />
    <glyph glyph-name="circled-up" unicode="&#xe75b;" horiz-adv-x="560" 
d="M280 20q-48 0 -89.5 18t-73 49.5t-49.5 73t-18 89.5t18 90t49.5 73t73 49t89.5 18t89.5 -18t73 -49t49.5 -73t18 -90t-18 -89.5t-49.5 -73t-73 -49.5t-89.5 -18zM280 430q-37 0 -70 -14t-57.5 -38.5t-38.5 -57.5t-14 -70t14 -70t38.5 -57.5t57.5 -38.5t70 -14t70 14
t57.5 38.5t38.5 57.5t14 70t-14 70t-38.5 57.5t-57.5 38.5t-70 14zM235 256h-56l101 96l101 -96h-56v-102h-90v102z" />
    <glyph glyph-name="circled-right" unicode="&#xe75a;" horiz-adv-x="560" 
d="M50 250q0 48 18 89.5t49.5 73t73 49.5t89.5 18t89.5 -18t73 -49.5t49.5 -73t18 -89.5t-18 -89.5t-49.5 -73t-73 -49.5t-89.5 -18t-89.5 18t-73 49.5t-49.5 73t-18 89.5zM460 250q0 37 -14 70t-38.5 57.5t-57.5 38.5t-70 14t-70 -14t-57.5 -38.5t-38.5 -57.5t-14 -70
t14 -70t38.5 -57.5t57.5 -38.5t70 -14t70 14t57.5 38.5t38.5 57.5t14 70zM286 295v57l95 -102l-95 -101v56h-102v90h102z" />
    <glyph glyph-name="triangle-left" unicode="&#x25c2;" horiz-adv-x="300" 
d="M250 365v-230l-200 115l200 115v0z" />
    <glyph glyph-name="triangle-down" unicode="&#x25be;" horiz-adv-x="330" 
d="M280 350l-115 -200l-115 200h230v0z" />
    <glyph glyph-name="triangle-up" unicode="&#x25b4;" horiz-adv-x="330" 
d="M50 150l115 200l115 -200h-230v0z" />
    <glyph glyph-name="triangle-right" unicode="&#x25b8;" horiz-adv-x="300" 
d="M50 365l200 -115l-200 -115v230v0z" />
    <glyph glyph-name="chevron-left" unicode="&#xe75d;" horiz-adv-x="270" 
d="M171 388q8 8 20 8t20 -8q19 -18 0 -40l-93 -98l93 -97q19 -22 0 -40q-8 -8 -20 -8t-20 8q-4 4 -22 23t-38 40q-24 25 -53 55q-8 8 -8 19q0 12 8 20q29 30 53 55q20 21 38 39.5t22 23.5z" />
    <glyph glyph-name="chevron-down" unicode="&#xe75c;" horiz-adv-x="390" 
d="M332 286q-4 -4 -22.5 -22t-39.5 -38q-25 -24 -55 -52q-9 -9 -20 -9t-20 9q-30 28 -55 52q-21 20 -39.5 38t-22.5 22q-8 8 -8 20.5t8 20.5t18.5 8.5t20.5 -8.5l98 -94l98 94q10 9 20.5 8.5t18.5 -8.5t8 -20.5t-8 -20.5z" />
    <glyph glyph-name="chevron-up" unicode="&#xe75f;" horiz-adv-x="390" 
d="M332 215q8 -8 8 -20.5t-8 -20.5t-18.5 -8.5t-20.5 8.5l-98 94l-98 -94q-10 -9 -20.5 -8.5t-18.5 8.5t-8 20.5t8 20.5q4 4 22.5 22t39.5 38q25 24 55 52q8 8 20 8t20 -8q30 -28 55 -52q21 -20 39.5 -38t22.5 -22z" />
    <glyph glyph-name="chevron-right" unicode="&#xe75e;" horiz-adv-x="270" 
d="M99 388q4 -5 22.5 -23.5t38.5 -39.5q24 -25 52 -55q8 -8 8 -20q0 -11 -8 -19q-28 -30 -52 -55q-20 -21 -38.5 -40t-22.5 -23q-8 -8 -20 -8t-20 8q-18 18 0 40l93 97l-93 98q-18 22 0 40q8 8 20 8t20 -8z" />
    <glyph glyph-name="chevron-small-left" unicode="&#xe761;" horiz-adv-x="232" 
d="M176 165q5 -5 5 -12t-5 -12t-12 -5t-12 5l-96 97q-5 5 -5 12.5t5 12.5l96 97q5 5 12 5t12 -5t5 -12t-5 -12l-78 -86z" />
    <glyph glyph-name="sound" unicode="&#x1f50a;" horiz-adv-x="556" 
d="M138 369q10 10 30 9t44.5 -12t53 -31t55.5 -47t47 -55.5t31 -53t12 -44.5t-9 -30q-7 -7 -25.5 -20.5t-44 -27t-56 -25t-62.5 -14t-63.5 6t-57.5 35.5q-27 26 -35.5 57.5t-6 63.5t13.5 62.5t25 56.5t27.5 44t20.5 25zM370 129q3 3 0.5 16t-11.5 31.5t-24.5 41t-38.5 45.5
t-45.5 38.5t-41 24.5t-31.5 11.5t-16 -0.5t-0.5 -16t11 -31.5t24 -41.5t38.5 -46t46 -38.5t41.5 -24t31.5 -11t16 0.5zM373 326q-9 0 -17 8q-8 7 -8 17t8 18l47 48q8 7 18 7t18 -7q7 -8 7 -18t-7 -18l-48 -47q-8 -8 -18 -8zM283 388q-9 5 -11.5 15t2.5 19l27 48q5 9 15 12
t19 -2t11.5 -15t-2.5 -19l-27 -48q-7 -13 -21 -13q-7 0 -13 3zM502 313q5 -9 2 -19t-12 -15l-48 -27q-8 -4 -12 -4q-14 0 -22 13q-5 9 -2 19t12 15l48 27q9 5 19 2.5t15 -11.5z" />
    <glyph glyph-name="chevron-small-down" unicode="&#xe760;" horiz-adv-x="332" 
d="M252 310q5 5 12 5t12 -5t5 -12t-5 -12l-98 -96q-5 -5 -12 -5t-12 5l-98 96q-5 5 -5 12t5 12t12.5 5t12.5 -5l85 -78z" />
    <glyph glyph-name="chevron-small-up" unicode="&#xe763;" horiz-adv-x="332" 
d="M81 190q-5 -5 -12.5 -5t-12.5 5t-5 12.5t5 12.5l98 95q5 5 12 5t12 -5l98 -95q5 -5 5 -12.5t-5 -12.5t-12.5 -5t-12.5 5l-85 79z" />
    <glyph glyph-name="chevron-small-right" unicode="&#xe762;" horiz-adv-x="232" 
d="M135 250l-79 86q-5 5 -5 12t5 12t12 5t12 -5l96 -97q5 -5 5 -12.5t-5 -12.5l-96 -97q-5 -5 -12 -5t-12 5t-5 12t5 12z" />
    <glyph glyph-name="chevron-thin-left" unicode="&#xe765;" horiz-adv-x="332" 
d="M276 65q5 -5 5 -12t-5 -12t-12 -5t-12 5l-196 197q-5 5 -5 12.5t5 12.5l196 197q5 5 12 5t12 -5t5 -12t-5 -12l-179 -186z" />
    <glyph glyph-name="chevron-thin-down" unicode="&#xe764;" horiz-adv-x="532" 
d="M266 182l186 178q5 5 12 5t12 -5t5 -12t-5 -12l-198 -196q-5 -5 -12 -5t-12 5l-198 196q-5 5 -5 12t5 12t12.5 5t12.5 -5z" />
    <glyph glyph-name="chevron-thin-up" unicode="&#xe767;" horiz-adv-x="532" 
d="M266 319l-185 -179q-5 -5 -12.5 -5t-12.5 5t-5 12.5t5 12.5l198 195q5 5 12 5t12 -5l198 -195q5 -5 5 -12.5t-5 -12.5t-12 -5t-12 5z" />
    <glyph glyph-name="chevron-thin-right" unicode="&#xe766;" horiz-adv-x="332" 
d="M235 250l-179 186q-5 5 -5 12t5 12t12 5t12 -5l196 -197q5 -5 5 -12.5t-5 -12.5l-196 -197q-5 -5 -12 -5t-12 5t-5 12t5 12z" />
    <glyph glyph-name="left-thin" unicode="&#x2190;" horiz-adv-x="590" 
d="M170 125l-120 125l120 125v-80h370v-89h-370v-81v0z" />
    <glyph glyph-name="down-thin" unicode="&#x2193;" horiz-adv-x="350" 
d="M300 125l-125 -120l-125 120h81v370h88v-370h81v0z" />
    <glyph glyph-name="up-thin" unicode="&#x2191;" horiz-adv-x="350" 
d="M300 376h-81v-371h-88v371h-81l125 119l125 -119v0z" />
    <glyph glyph-name="right-thin" unicode="&#x2192;" horiz-adv-x="590" 
d="M421 125v81h-371v89h371v80l119 -125l-119 -125v0z" />
    <glyph glyph-name="arrow-combo" unicode="&#xe74f;" horiz-adv-x="330" 
d="M165 500l115 -182h-230zM165 0l-115 183h230z" />
    <glyph glyph-name="three-dots" unicode="&#x23f6;" horiz-adv-x="560" 
d="M105 305q23 0 39 -16t16 -39t-16 -39t-39 -16t-39 16t-16 39t16 39t39 16zM280 305q23 0 39 -16t16 -39t-16 -39t-39 -16t-39 16t-16 39t16 39t39 16zM455 305q23 0 39 -16t16 -39t-16 -39t-39 -16t-39 16t-16 39t16 39t39 16z" />
    <glyph glyph-name="two-dots" unicode="&#x23f5;" horiz-adv-x="385" 
d="M105 305q23 0 39 -16t16 -39t-16 -39t-39 -16t-39 16t-16 39t16 39t39 16zM280 305q23 0 39 -16t16 -39t-16 -39t-39 -16t-39 16t-16 39t16 39t39 16z" />
    <glyph glyph-name="dot" unicode="&#x23f4;" horiz-adv-x="210" 
d="M105 305q23 0 39 -16t16 -39t-16 -39t-39 -16t-39 16t-16 39t16 39t39 16z" />
    <glyph glyph-name="paper-plane" unicode="&#x1f53f;" horiz-adv-x="562" 
d="M498 435q7 2 11 -1.5t2 -9.5q0 -2 -5.5 -25t-13.5 -57t-17 -73.5t-17 -73.5t-13.5 -58t-6.5 -26q-2 -7 -7.5 -9.5t-11.5 0.5q-3 2 -22.5 12.5t-42.5 22.5q-26 14 -59 32l-15 8l11 13q54 58 97 105q18 20 36 39t32 34t22.5 24.5t9.5 10.5q2 2 -0.5 4.5t-4.5 0.5
q-1 -1 -13 -10t-31.5 -23t-44.5 -32t-50 -37q-60 -44 -136 -99l-56 22l-95 38q-7 2 -6 6t6 6q2 1 35 12.5t81 28.5t104.5 37t104.5 37t81 28.5t35 12.5zM207 173l80 -41q-18 -17 -33 -30q-13 -11 -24.5 -21.5t-13.5 -12.5q-9 -7 -9 3v102z" />
    <glyph glyph-name="circled-cross" unicode="&#x2716;" horiz-adv-x="520" 
d="M260 460q43 0 81.5 -16.5t67 -45t45 -67t16.5 -81.5q0 -44 -16.5 -82t-45 -66.5t-67 -45t-81.5 -16.5q-44 0 -82 16.5t-66.5 45t-45 66.5t-16.5 82q0 43 16.5 81.5t45 67t66.5 45t82 16.5zM380 327l-43 43l-77 -76l-76 76l-44 -43l77 -77l-77 -76l44 -43l76 76l77 -76
l43 43l-77 76z" />
    <glyph glyph-name="cc" unicode="&#x1f545;" horiz-adv-x="582" 
d="M288 490q49 1 93 -17.5t77 -50.5t52.5 -75.5t20.5 -92.5q1 -50 -17.5 -94t-50.5 -77t-75.5 -52.5t-93.5 -20.5q-50 0 -93.5 18t-76.5 50.5t-52.5 75.5t-20.5 93t17.5 94t50.5 77t75.5 52.5t93.5 19.5zM294 61q39 0 73 15.5t59.5 41.5t40 61t14.5 74q-1 39 -16.5 73.5
t-41.5 60t-60.5 39.5t-73.5 14t-73.5 -15.5t-60 -41.5t-40 -61t-13.5 -74q0 -39 15.5 -73.5t41.5 -60t61 -39.5t74 -14zM232 210q20 0 29 20l28 -15q-10 -18 -25 -26q-16 -10 -35 -10q-31 0 -50 19q-19 18 -19 52t19 53t48 19q42 0 62 -33l-31 -16q-5 10 -12 14t-14 4
q-30 0 -30 -41q0 -19 7 -29q9 -11 23 -11zM365 210q21 0 28 20l29 -15q-9 -16 -25 -26t-35 -10q-32 0 -50 19q-19 18 -19 52q0 32 19 53q19 19 49 19q42 0 60 -33l-30 -16q-5 10 -12 14t-14 4q-31 0 -31 -41q0 -18 8 -29t23 -11z" />
    <glyph glyph-name="cc-by" unicode="&#x1f546;" horiz-adv-x="580" 
d="M290 338q-33 0 -33 34t33 34q34 0 34 -34t-34 -34zM339 325q7 0 11 -4q5 -5 5 -11v-98h-28v-117h-74v117h-28v98q0 6 5 11q4 4 11 4h98zM290 490q50 0 93.5 -19t76 -51.5t51.5 -76t19 -93.5t-19 -93.5t-51.5 -76t-76 -51.5t-93.5 -19t-93.5 19t-76 51.5t-51.5 76
t-19 93.5t19 93.5t51.5 76t76 51.5t93.5 19zM290 54q40 0 76 15.5t62.5 42t42 62t15.5 76.5t-15.5 76.5t-42 62t-62.5 42t-76 15.5q-41 0 -76.5 -15.5t-62 -42t-42 -62t-15.5 -76.5t15.5 -76.5t42 -62t62 -42t76.5 -15.5z" />
    <glyph glyph-name="cc-nc" unicode="&#x1f547;" horiz-adv-x="580" 
d="M290 490q50 0 93.5 -19t76 -51.5t51.5 -76t19 -93.5t-19 -93.5t-51.5 -76t-76 -51.5t-93.5 -19t-93.5 19t-76 51.5t-51.5 76t-19 93.5t19 93.5t51.5 76t76 51.5t93.5 19zM105 315q-11 -31 -11 -65q0 -41 15.5 -76.5t42 -62t62 -42t76.5 -15.5q56 0 101.5 28t70.5 74
l-89 40q-4 -23 -23 -37q-19 -15 -43 -17v-37h-28v37q-39 0 -73 29l33 33q25 -22 54 -22q12 0 21 6t9 18q0 9 -7 15l-23 10l-28 13l-38 16zM479 200q7 22 7 50q0 41 -15.5 76.5t-42 62t-62.5 42t-76 15.5q-52 0 -95 -24t-69 -65l91 -41q6 18 23 31q16 10 39 12v37h28v-37
q34 -2 60 -22l-31 -32q-22 14 -42 14q-12 0 -19 -4q-9 -5 -9 -15q0 -4 2 -6l30 -14l21 -9l39 -17z" />
    <glyph glyph-name="cc-nc-eu" unicode="&#x1f548;" horiz-adv-x="580" 
d="M290 490q50 0 93.5 -19t76 -51.5t51.5 -76t19 -93.5t-19 -93.5t-51.5 -76t-76 -51.5t-93.5 -19t-93.5 19t-76 51.5t-51.5 76t-19 93.5t19 93.5t51.5 76t76 51.5t93.5 19zM105 314q-11 -31 -11 -64q0 -41 15.5 -76.5t42 -62t62 -42t76.5 -15.5q56 0 101 28t71 74l-123 54
h-87q5 -18 13 -28q10 -11 23.5 -15.5t28.5 -4.5q14 0 26.5 3.5t19.5 6.5l9 -45q-10 -5 -26.5 -10t-35.5 -5q-30 0 -55.5 11.5t-42.5 34.5q-17 22 -23 52h-26v29h22v7q0 3 0.5 6t0.5 6h-23v28h5zM480 200q6 24 6 50q0 41 -15.5 76.5t-42 62t-62.5 42t-76 15.5
q-52 0 -95.5 -24t-69.5 -65l79 -35q3 5 6.5 9.5t7.5 9.5q36 41 92 41q19 0 34.5 -3.5t26.5 -8.5l-12 -46q-8 4 -19 7t-25 3t-27 -5t-23 -17q-5 -5 -8 -14l28 -12h68v-28h-4z" />
    <glyph glyph-name="cc-nc-jp" unicode="&#x1f549;" horiz-adv-x="580" 
d="M290 490q50 0 93.5 -19t76 -51.5t51.5 -76t19 -93.5t-19 -93.5t-51.5 -76t-76 -51.5t-93.5 -19t-93.5 19t-76 51.5t-51.5 76t-19 93.5t19 93.5t51.5 76t76 51.5t93.5 19zM103 308q-9 -27 -9 -58q0 -41 15.5 -76.5t42 -62t62 -42t76.5 -15.5q54 0 98 26.5t70 69.5l-76 34
v-34h-63v-54h-59v54h-62v37h62v18l-6 12h-56v37h27zM375 187l-53 24l-3 -6v-18h56zM478 194q8 29 8 56q0 41 -15.5 76.5t-42 62t-62.5 42t-76 15.5q-54 0 -97.5 -25.5t-69.5 -68.5l79 -35l-27 49h64l38 -83l23 -10l41 93h64l-61 -112h38v-17z" />
    <glyph glyph-name="cc-sa" unicode="&#x1f54a;" horiz-adv-x="580" 
d="M289 377q57 0 90 -37q33 -36 33 -93q0 -55 -34 -92q-37 -37 -90 -37q-40 0 -71 25q-29 24 -35 69h60q3 -43 53 -43q24 0 41 21q15 22 15 59q0 38 -14 58q-15 20 -41 20q-48 0 -54 -43h18l-48 -47l-47 47h18q7 45 36 69q28 24 70 24zM290 490q50 0 93.5 -19t76 -51.5
t51.5 -76t19 -93.5t-19 -93.5t-51.5 -76t-76 -51.5t-93.5 -19t-93.5 19t-76 51.5t-51.5 76t-19 93.5t19 93.5t51.5 76t76 51.5t93.5 19zM290 54q40 0 76 15.5t62.5 42t42 62t15.5 76.5t-15.5 76.5t-42 62t-62.5 42t-76 15.5q-41 0 -76.5 -15.5t-62 -42t-42 -62t-15.5 -76.5
t15.5 -76.5t42 -62t62 -42t76.5 -15.5z" />
    <glyph glyph-name="cc-nd" unicode="&#x1f54b;" horiz-adv-x="580" 
d="M203 307h174v-41h-174v41zM203 230h174v-41h-174v41zM290 490q50 0 93.5 -19t76 -51.5t51.5 -76t19 -93.5t-19 -93.5t-51.5 -76t-76 -51.5t-93.5 -19t-93.5 19t-76 51.5t-51.5 76t-19 93.5t19 93.5t51.5 76t76 51.5t93.5 19zM290 54q40 0 76 15.5t62.5 42t42 62
t15.5 76.5t-15.5 76.5t-42 62t-62.5 42t-76 15.5q-41 0 -76.5 -15.5t-62 -42t-42 -62t-15.5 -76.5t15.5 -76.5t42 -62t62 -42t76.5 -15.5z" />
    <glyph glyph-name="cc-zero" unicode="&#x1f54d;" horiz-adv-x="580" 
d="M290 389q30 0 49 -12.5t30 -33t15.5 -45t4.5 -48.5t-4.5 -48.5t-15.5 -44.5t-30 -32.5t-49 -12.5t-49 12.5t-30 32.5t-15.5 44.5t-4.5 48.5t4.5 48.5t15.5 45t30 33t49 12.5zM247 250q0 -6 0.5 -15t1.5 -18l53 97q5 8 3.5 12.5t-6.5 8.5q-6 2 -9 2q-15 0 -24 -9.5
t-13 -23.5t-5 -29t-1 -25zM290 164q15 0 24 9.5t13 23t5 28.5t1 25q0 19 -3 42l-59 -102q-7 -9 -4 -14.5t10 -8.5q1 -1 3 -1l1 -1q2 0 4.5 -0.5t4.5 -0.5zM290 490q50 0 93.5 -19t76 -51.5t51.5 -76t19 -93.5t-19 -93.5t-51.5 -76t-76 -51.5t-93.5 -19t-93.5 19t-76 51.5
t-51.5 76t-19 93.5t19 93.5t51.5 76t76 51.5t93.5 19zM290 54q40 0 76 15.5t62.5 42t42 62t15.5 76.5t-15.5 76.5t-42 62t-62.5 42t-76 15.5q-41 0 -76.5 -15.5t-62 -42t-42 -62t-15.5 -76.5t15.5 -76.5t42 -62t62 -42t76.5 -15.5z" />
    <glyph glyph-name="cc-share" unicode="&#x1f54e;" horiz-adv-x="580" 
d="M388 319q6 0 10 -4t4 -9v-177q0 -5 -4 -9t-10 -4h-130q-6 0 -10 4t-4 9v52h-52q-5 0 -9 4t-4 10v176q0 6 3 9q2 3 9 5h132q5 0 9 -4t4 -10v-52h52zM310 319v39h-105v-150h39v98q0 5 4 9q2 2 8 4h54zM375 293h-105v-151h105v151zM290 490q50 0 93.5 -19t76 -51.5t51.5 -76
t19 -93.5t-19 -93.5t-51.5 -76t-76 -51.5t-93.5 -19t-93.5 19t-76 51.5t-51.5 76t-19 93.5t19 93.5t51.5 76t76 51.5t93.5 19zM290 54q40 0 76 15.5t62.5 42t42 62t15.5 76.5t-15.5 76.5t-42 62t-62.5 42t-76 15.5q-41 0 -76.5 -15.5t-62 -42t-42 -62t-15.5 -76.5
t15.5 -76.5t42 -62t62 -42t76.5 -15.5z" />
    <glyph glyph-name="cc-remix" unicode="&#x1f54f;" horiz-adv-x="580" 
d="M452 244v-68l-5 -2l-58 -25l-2 -1l-3 1l-126 52l-4 2l-62 -26l-62 27v61l58 24l-1 1v68l65 28l147 -61v-59l48 -20zM379 210h-1v1l-110 45v-43l110 -46v1l1 -1v43zM425 239l-36 15l-38 -16l35 -15zM437 228l-43 -18v-42l43 18v42zM290 490q50 0 93.5 -19t76 -51.5
t51.5 -76t19 -93.5t-19 -93.5t-51.5 -76t-76 -51.5t-93.5 -19t-93.5 19t-76 51.5t-51.5 76t-19 93.5t19 93.5t51.5 76t76 51.5t93.5 19zM290 54q40 0 76 15.5t62.5 42t42 62t15.5 76.5t-15.5 76.5t-42 62t-62.5 42t-76 15.5q-41 0 -76.5 -15.5t-62 -42t-42 -62t-15.5 -76.5
t15.5 -76.5t42 -62t62 -42t76.5 -15.5z" />
    <glyph glyph-name="db-logo" unicode="&#x1f5f9;" horiz-adv-x="463" 
d="M323 195q11 -21 11 -44.5t-13 -45.5q-10 -17 -25 -28.5t-32.5 -15.5t-37 -1t-38.5 14l-32 18l-54 -92l-28 16l103 179q-34 -5 -67 14l-60 35l93 162l61 -35q33 -20 46 -50l103 179l29 -17l-54 -93l32 -18q38 -22 48.5 -59t-9.5 -72q-12 -22 -32.5 -33.5t-43.5 -12.5z
M313 365l-62 -108q0 -1 -0.5 -1.5t-0.5 -1.5l31 -18q26 -15 50 -8.5t38 30.5t8 48.5t-32 39.5zM125 235q26 -15 50 -8.5t38 30.5t8 49t-32 39l-32 19l-64 -111zM203 100q26 -15 50 -8.5t38 30.5t7.5 48.5t-32.5 39.5l-31 18l-2 -2l-62 -108z" />
    <glyph glyph-name="db-shape" unicode="&#x1f5fa;" horiz-adv-x="550" 
d="M275 475q69 0 113 -9.5t68.5 -34.5t34 -68.5t9.5 -112.5t-9.5 -113t-34 -68.5t-68.5 -34t-113 -9.5t-112.5 9.5t-68.5 34t-34.5 68.5t-9.5 113t9.5 112.5t34.5 68.5t68.5 34.5t112.5 9.5z" />
    <glyph glyph-name="cc-pd" unicode="&#x1f54c;" horiz-adv-x="580" 
d="M290 490q50 0 93.5 -19t76 -51.5t51.5 -76t19 -93.5t-19 -93.5t-51.5 -76t-76 -51.5t-93.5 -19t-93.5 19t-76 51.5t-51.5 76t-19 93.5t19 93.5t51.5 76t76 51.5t93.5 19zM105 314q-11 -31 -11 -64q0 -41 15.5 -76.5t42 -62t62 -42t76.5 -15.5q56 0 101 28t71 74l-212 94
q0 -12 3.5 -24t9.5 -22t15.5 -16.5t23.5 -6.5q3 0 12 1.5t20 11.5l3 3l35 -42q-2 -2 -4.5 -4t-4.5 -4q-14 -9 -31 -15t-37 -6q-17 0 -37 5.5t-37.5 20t-29.5 38t-12 59.5q0 16 3 31zM480 200q6 24 6 50q0 41 -15.5 76.5t-42 62t-62.5 42t-76 15.5q-52 0 -95.5 -24t-69.5 -65
l74 -33q14 23 38.5 37t59.5 14q14 0 34.5 -5t40.5 -22l-39 -40q-4 4 -7 6q-11 8 -26 8q-14 0 -24 -7t-16 -18z" />
    <glyph glyph-name="phone" unicode="&#x1f4de;" horiz-adv-x="500" 
d="M281 220q15 15 28.5 30t22.5 29t12 25.5t-4 18.5q-10 10 -18 18.5t-10 19.5t3.5 25.5t22.5 35.5q17 22 31.5 26.5t27 -1t23 -16.5t19.5 -20q11 -11 11 -35.5t-12.5 -57.5t-38 -72t-65.5 -79t-79 -65.5t-72 -38.5t-57.5 -13t-35.5 11q-9 9 -20.5 20t-16.5 23.5t-0.5 27
t25.5 31.5t35.5 22.5t25.5 3t19.5 -10.5t18.5 -18q7 -7 18.5 -4t25.5 12t29.5 23t30.5 29z" />
    <glyph glyph-name="mobile" unicode="&#x1f4f1;" horiz-adv-x="390" 
d="M290 495q21 0 35.5 -14.5t14.5 -35.5v-390q0 -20 -14.5 -35t-35.5 -15h-190q-20 0 -35 15t-15 35v390q0 21 15 35.5t35 14.5h190zM195 25q15 0 25 7.5t10 17.5q0 11 -10 18t-25 7q-14 0 -24.5 -7t-10.5 -18q0 -10 10.5 -17.5t24.5 -7.5zM300 430h-210v-330h210v330z" />
    <glyph glyph-name="space" unicode="&#xf020;" horiz-adv-x="500" 
 />
  </font>
</defs>
</svg>
